<?xml version="1.0" encoding="UTF-8"?>
<svg version="1.1" xmlns="http://www.w3.org/2000/svg" width="500" height="678">
<path d="M0 0 C80.52 0 161.04 0 244 0 C244 80.52 244 161.04 244 244 C163.48 244.33 82.96 244.66 0 245 C0 164.15 0 83.3 0 0 Z " fill="#0078A9" transform="translate(133,0)"/>
<path d="M0 0 C79.86 0 159.72 0 242 0 C242 5.94 242 11.88 242 18 C239.40125 17.814375 239.40125 17.814375 236.75 17.625 C218.36302504 17.66501518 197.52866655 26.75587351 184 39 C183.35160156 39.556875 182.70320312 40.11375 182.03515625 40.6875 C172.70334494 49.2616791 166.65794574 60.76686149 160.50683594 71.6809082 C150.46044506 89.47654308 140.7878263 105.14869091 120.45703125 112.0078125 C112.54816994 114.04383152 104.19153978 114.10724168 96.07421875 114.54296875 C75.04077372 115.82812794 57.28177556 126.04109773 42.9375 141.125 C19.9521637 167.27947142 8.763071 201.69392117 1 235 C0.67 235 0.34 235 0 235 C0 157.45 0 79.9 0 0 Z " fill="#00AB66" transform="translate(134,0)"/>
<path d="M0 0 C0.33 0 0.66 0 1 0 C1.33 76.56 1.66 153.12 2 232 C3.65 225.4 5.3 218.8 7 212 C8.25961219 207.93673487 9.54722254 203.98595982 11 200 C11.42925781 198.7728125 11.85851562 197.545625 12.30078125 196.28125 C15.79929959 186.44972653 20.09891891 177.2056722 25 168 C25.47542236 167.09121094 25.47542236 167.09121094 25.96044922 166.1640625 C38.32885817 142.67113851 55.85927443 125.26234248 80.94140625 115.90234375 C87.2476047 114.0418944 93.62506101 113.82372817 100.15014648 113.45654297 C117.83831981 112.38591303 131.89456628 109.55523047 144.6328125 96.25 C151.72202824 88.06664129 156.69614242 78.64984919 161.87158203 69.19506836 C176.35633432 42.83074938 194.6293293 27.57091456 223.25 18.625 C229.28577942 16.9720195 237.10295286 15.05147643 243 18 C243 12.06 243 6.12 243 0 C243.33 0 243.66 0 244 0 C244 80.52 244 161.04 244 244 C163.48 244.33 82.96 244.66 0 245 C0 164.15 0 83.3 0 0 Z M202 58 C193.98457109 66.82432541 188.01192712 77.01160393 182.59204102 87.56835938 C172.76575859 106.66820882 157.02919208 117.37460404 136.875 124.3125 C130.04259619 126.25730408 123.05243686 127.03856768 116.02294922 127.93359375 C90.7560236 131.16636979 69.48828018 142.48960024 53.69140625 162.671875 C50.81439145 166.60593996 48.33705893 170.72674414 46 175 C45.65630371 175.62825684 45.31260742 176.25651367 44.95849609 176.90380859 C34.16712224 197.14459756 28 220.09293058 28 243 C98.95 243 169.9 243 243 243 C243 175.35 243 107.7 243 38 C225.75972188 38 213.93355067 46.08579058 202 58 Z " fill="#F5FAFA" transform="translate(133,0)"/>
<path d="M0 0 C1.2463623 0.01047363 2.49272461 0.02094727 3.77685547 0.03173828 C4.77143265 0.03598312 4.77143265 0.03598312 5.78610229 0.04031372 C7.9055988 0.05151643 10.02467401 0.07662027 12.14404297 0.10205078 C13.58023479 0.11208051 15.01643322 0.12120637 16.45263672 0.12939453 C19.97490925 0.15145578 23.496935 0.18598585 27.01904297 0.22705078 C27.51404297 2.20705078 27.51404297 2.20705078 28.01904297 4.22705078 C21.26904297 6.22705078 21.26904297 6.22705078 19.01904297 6.22705078 C18.68904297 16.45705078 18.35904297 26.68705078 18.01904297 37.22705078 C26.59904297 37.22705078 35.17904297 37.22705078 44.01904297 37.22705078 C44.01904297 26.99705078 44.01904297 16.76705078 44.01904297 6.22705078 C41.37904297 5.89705078 38.73904297 5.56705078 36.01904297 5.22705078 C36.34904297 3.57705078 36.67904297 1.92705078 37.01904297 0.22705078 C46.58904297 0.22705078 56.15904297 0.22705078 66.01904297 0.22705078 C66.51404297 2.20705078 66.51404297 2.20705078 67.01904297 4.22705078 C64.11304036 5.48370056 62.22299712 6.22705078 59.01904297 6.22705078 C58.98757333 15.67634714 58.99359475 25.12465855 59.04750919 34.57385635 C59.07136565 38.96158636 59.08229609 43.3485563 59.0637207 47.73632812 C59.04626924 51.9708146 59.06272652 56.20393531 59.10272026 60.43825531 C59.1120159 62.05375563 59.10908321 63.66937401 59.09373665 65.28482819 C59.07431808 67.54867184 59.09833882 69.80819734 59.13256836 72.07177734 C59.13478897 73.35973206 59.13700958 74.64768677 59.13929749 75.97467041 C60.1238964 79.61468931 60.48301208 79.89185439 63.57444763 81.67425537 C64.71116409 82.18667786 65.84788055 82.69910034 67.01904297 83.22705078 C67.01904297 84.54705078 67.01904297 85.86705078 67.01904297 87.22705078 C56.78904297 87.22705078 46.55904297 87.22705078 36.01904297 87.22705078 C35.68904297 85.90705078 35.35904297 84.58705078 35.01904297 83.22705078 C40.76904297 81.22705078 40.76904297 81.22705078 43.01904297 81.22705078 C43.34904297 68.68705078 43.67904297 56.14705078 44.01904297 43.22705078 C35.43904297 43.22705078 26.85904297 43.22705078 18.01904297 43.22705078 C18.51404297 61.04705078 18.51404297 61.04705078 19.01904297 79.22705078 C21.65904297 80.54705078 24.29904297 81.86705078 27.01904297 83.22705078 C27.01904297 84.54705078 27.01904297 85.86705078 27.01904297 87.22705078 C16.45904297 87.22705078 5.89904297 87.22705078 -4.98095703 87.22705078 C-4.65095703 85.57705078 -4.32095703 83.92705078 -3.98095703 82.22705078 C-1.01095703 81.23705078 -1.01095703 81.23705078 2.01904297 80.22705078 C2.01904297 55.80705078 2.01904297 31.38705078 2.01904297 6.22705078 C-0.95095703 5.73205078 -0.95095703 5.73205078 -3.98095703 5.22705078 C-4.31095703 4.23705078 -4.64095703 3.24705078 -4.98095703 2.22705078 C-2.98095703 0.22705078 -2.98095703 0.22705078 0 0 Z " fill="#2B2929" transform="translate(121.98095703125,455.77294921875)"/>
<path d="M0 0 C0.99 0 1.98 0 3 0 C5.55168789 5.10337579 4.62045932 11.30688974 5 17 C15.23 17 25.46 17 36 17 C36.495 18.98 36.495 18.98 37 21 C35.02 21.66 33.04 22.32 31 23 C31.49677109 31.30059331 33.94011815 38.71530409 36.5625 46.5625 C36.99233967 47.87017896 37.42138244 49.17812015 37.84960938 50.48632812 C38.89195498 53.66021192 39.94225358 56.83122246 41 60 C42.45753357 55.53899464 43.89948564 51.07335998 45.32739258 46.6027832 C45.81502841 45.08351661 46.30685185 43.56558736 46.80297852 42.04907227 C47.51650599 39.86554939 48.21470027 37.67761699 48.91015625 35.48828125 C49.24600487 34.47704948 49.24600487 34.47704948 49.58863831 33.44538879 C50.7932239 29.59443993 51.20536936 26.88396794 50 23 C48.02 22.34 46.04 21.68 44 21 C44.33 19.68 44.66 18.36 45 17 C51.27 17 57.54 17 64 17 C63.505 19.475 63.505 19.475 63 22 C61.515 22.495 61.515 22.495 60 23 C55.79576829 30.41106866 53.86845066 39.4867347 51.375 47.58984375 C50.94232535 48.98422901 50.50921115 50.37847795 50.07568359 51.77259827 C48.94281586 55.41850103 47.81431687 59.06573847 46.68725586 62.71343994 C44.88503489 68.54568949 43.07855436 74.3766073 41.26739502 80.20608711 C40.64253338 82.22081136 40.02107001 84.23656049 39.39990234 86.25242615 C34.03530847 103.5462231 34.03530847 103.5462231 32 108 C29.47524538 109.26237731 27.68799534 109.09856404 24.875 109.0625 C23.50988281 109.04896484 23.50988281 109.04896484 22.1171875 109.03515625 C21.06917969 109.01775391 21.06917969 109.01775391 20 109 C18.73762269 106.47524538 18.90143596 104.68799534 18.9375 101.875 C18.94652344 100.96492188 18.95554687 100.05484375 18.96484375 99.1171875 C18.97644531 98.41851562 18.98804688 97.71984375 19 97 C23.1205746 95.00214565 26.45194365 94.82164485 31 95 C31.50980881 93.29456816 32.00738268 91.58547682 32.5 89.875 C32.7784375 88.92367187 33.056875 87.97234375 33.34375 86.9921875 C34.60700662 81.23233888 33.89694655 76.97412709 31.875 71.4765625 C31.65221878 70.86119125 31.42943756 70.24582001 31.1999054 69.61180115 C30.7221377 68.29481082 30.24015115 66.97934456 29.75430298 65.66531372 C28.47763538 62.21205621 27.23123261 58.74786075 25.98046875 55.28515625 C25.72814987 54.58935959 25.47583099 53.89356293 25.21586609 53.17668152 C22.80410539 46.50805507 20.53675133 39.79612173 18.3125 33.0625 C17.80493164 31.52746826 17.80493164 31.52746826 17.28710938 29.96142578 C16.52212094 27.64179648 15.75946206 25.32144336 15 23 C14.34 23.33 13.68 23.66 13 24 C11.45976004 24.06950541 9.91665012 24.08452357 8.375 24.0625 C7.14910156 24.04896484 7.14910156 24.04896484 5.8984375 24.03515625 C5.27195312 24.02355469 4.64546875 24.01195312 4 24 C4.09212871 30.51475058 4.19941507 37.0291234 4.31738281 43.54345703 C4.35573134 45.7608469 4.39057371 47.97830024 4.421875 50.19580078 C4.46739826 53.37816089 4.52541319 56.56008182 4.5859375 59.7421875 C4.59748871 60.73805878 4.60903992 61.73393005 4.62094116 62.75997925 C4.64081085 63.68078278 4.66068054 64.6015863 4.68115234 65.55029297 C4.69447601 66.3630368 4.70779968 67.17578064 4.7215271 68.01315308 C4.82899081 70.23040058 4.82899081 70.23040058 7 72 C7.7425 71.175 8.485 70.35 9.25 69.5 C12 67 12 67 16 67 C15.86483598 72.40656067 13.6639311 75.52531475 10.1015625 79.3515625 C6.60955002 82.09065036 3.33812739 82.46479936 -1 82 C-3.875 81.125 -3.875 81.125 -6 79 C-9.10240844 72.48739945 -9.40746749 66.15561668 -9.29296875 59.05859375 C-9.28872391 58.05031021 -9.28447906 57.04202667 -9.28010559 56.00318909 C-9.26344683 52.81434284 -9.22581877 49.626152 -9.1875 46.4375 C-9.17243661 44.26237898 -9.15875112 42.08724796 -9.14648438 39.91210938 C-9.11358548 34.60785307 -9.06351575 29.30397338 -9 24 C-10.98 24 -12.96 24 -15 24 C-14.62403791 21.21788056 -14.32681541 19.4120716 -12.5625 17.1875 C-11 16 -11 16 -9 16 C-9 15.34 -9 14.68 -9 14 C-8.34 14 -7.68 14 -7 14 C-6.58621094 13.17242187 -6.58621094 13.17242187 -6.1640625 12.328125 C-4.109375 8.21875 -2.0546875 4.109375 0 0 Z " fill="#373535" transform="translate(414,328)"/>
<path d="M0 0 C1.32210059 2.64420117 1.16122122 4.68199615 1.20532227 7.64306641 C1.22526749 8.82413971 1.24521271 10.00521301 1.26576233 11.22207642 C1.28247482 12.50230682 1.29918732 13.78253723 1.31640625 15.1015625 C1.33718735 16.40829926 1.35796844 17.71503601 1.37937927 19.06137085 C1.43459294 22.536689 1.48400525 26.01206653 1.53222656 29.48748779 C1.58244677 33.033379 1.63813012 36.5791839 1.69335938 40.125 C1.80093228 47.0832585 1.90237917 54.04159496 2 61 C4.82473024 58.26232877 7.63252092 55.5078931 10.4375 52.75 C11.64116211 51.58404297 11.64116211 51.58404297 12.86914062 50.39453125 C13.63291016 49.64042969 14.39667969 48.88632812 15.18359375 48.109375 C16.24404907 47.07248535 16.24404907 47.07248535 17.32592773 46.01464844 C19.04546946 43.94528015 19.60556484 42.6295677 20 40 C17.69 39.34 15.38 38.68 13 38 C13.33 36.68 13.66 35.36 14 34 C22.58 34 31.16 34 40 34 C40 35.32 40 36.64 40 38 C39.42894531 38.13792969 38.85789062 38.27585937 38.26953125 38.41796875 C29.00149545 41.32067631 23.400232 48.05805557 17 55 C18.30655006 59.40960646 20.02559043 62.9436998 22.5 66.8125 C24.95273574 70.66156687 27.32090804 74.52938344 29.5390625 78.51953125 C30.18391602 79.6655481 30.18391602 79.6655481 30.84179688 80.8347168 C31.68129016 82.33305898 32.50866598 83.83827136 33.32226562 85.35083008 C35.89305907 89.89260046 37.92078869 92.10081664 43 94 C43 94.99 43 95.98 43 97 C38.12356054 98.26686881 33.31191298 98.14760473 28.3125 98.125 C27.0121582 98.13080078 27.0121582 98.13080078 25.68554688 98.13671875 C24.85732422 98.13542969 24.02910156 98.13414062 23.17578125 98.1328125 C22.42208252 98.13168457 21.66838379 98.13055664 20.8918457 98.12939453 C19 98 19 98 17 97 C17 95.68 17 94.36 17 93 C19.475 92.505 19.475 92.505 22 92 C20.04980757 88.45402291 18.0924835 84.91209213 16.12841797 81.3737793 C15.46107153 80.16914591 14.79569562 78.96341872 14.13232422 77.7565918 C13.1793268 76.02367496 12.21867768 74.29497299 11.2578125 72.56640625 C10.6817627 71.52427979 10.10571289 70.48215332 9.51220703 69.40844727 C8.22576231 66.89634521 8.22576231 66.89634521 6 66 C3.93272639 67.16157371 3.93272639 67.16157371 2 69 C1.36029405 71.40238852 1.36029405 71.40238852 1.390625 74.10546875 C1.35839844 75.08837891 1.32617188 76.07128906 1.29296875 77.08398438 C1.27169922 78.62022461 1.27169922 78.62022461 1.25 80.1875 C1.22035156 81.22326172 1.19070313 82.25902344 1.16015625 83.32617188 C1.08942755 85.88419312 1.03674743 88.44130158 1 91 C3.31 91.66 5.62 92.32 8 93 C8 94.32 8 95.64 8 97 C4.94080612 98.01973129 2.87581975 98.11533602 -0.32421875 98.09765625 C-1.35224609 98.09443359 -2.38027344 98.09121094 -3.43945312 98.08789062 C-4.51130859 98.07951172 -5.58316406 98.07113281 -6.6875 98.0625 C-7.77095703 98.05798828 -8.85441406 98.05347656 -9.97070312 98.04882812 C-12.64719085 98.03703743 -15.32356777 98.02058063 -18 98 C-18.495 95.525 -18.495 95.525 -19 93 C-16.03 92.01 -16.03 92.01 -13 91 C-13 64.6 -13 38.2 -13 11 C-14.65 10.67 -16.3 10.34 -18 10 C-18 8.68 -18 7.36 -18 6 C-17.34773438 5.81824219 -16.69546875 5.63648438 -16.0234375 5.44921875 C-11.04236829 4.01661035 -4.9215158 0 0 0 Z " fill="#282626" transform="translate(401,580)"/>
<path d="M0 0 C10.23 0 20.46 0 31 0 C31 1.32 31 2.64 31 4 C28.36 4.66 25.72 5.32 23 6 C22.14468639 9.42125446 21.86882372 11.87754777 21.85473633 15.34423828 C21.84835648 16.4128006 21.84197662 17.48136292 21.83540344 18.58230591 C21.83429062 19.73334808 21.8331778 20.88439026 21.83203125 22.0703125 C21.82870285 23.26171844 21.82537445 24.45312439 21.82194519 25.68063354 C21.81688127 28.20407729 21.8145367 30.72752774 21.81469727 33.25097656 C21.81252024 37.08930707 21.79438468 40.92734571 21.77539062 44.765625 C21.77245461 47.22135319 21.77047121 49.67708274 21.76953125 52.1328125 C21.76234573 53.27170929 21.75516022 54.41060608 21.74775696 55.58401489 C21.76980729 63.37799508 22.52835436 70.58506308 25 78 C27.37625345 79.18391223 27.37625345 79.18391223 30 80 C30.99 80.33 31.98 80.66 33 81 C38.58419173 81.36617651 42.22647798 81.2546741 47 78 C51.23482142 72.62063225 52.1243198 68.7735452 52.12939453 62.06982422 C52.13412277 60.2780928 52.13412277 60.2780928 52.13894653 58.45016479 C52.1369223 57.16465729 52.13489807 55.87914978 52.1328125 54.5546875 C52.13348633 53.2199807 52.13445702 51.88527401 52.13571167 50.55056763 C52.13718389 47.75814644 52.1350487 44.9657573 52.13037109 42.17333984 C52.124663 38.59090067 52.12796262 35.00853624 52.13394356 31.42609978 C52.13841986 28.01062297 52.13528905 24.59516643 52.1328125 21.1796875 C52.13483673 19.89013153 52.13686096 18.60057556 52.13894653 17.27194214 C52.13579437 16.08375885 52.13264221 14.89557556 52.12939453 13.67138672 C52.12859894 12.62199921 52.12780334 11.57261169 52.12698364 10.49142456 C52.16697073 7.99968686 52.16697073 7.99968686 51 6 C48.6859378 5.26924352 46.35171131 4.59861742 44 4 C44 2.68 44 1.36 44 0 C51.59 0 59.18 0 67 0 C67 1.32 67 2.64 67 4 C65.865625 4.45375 64.73125 4.9075 63.5625 5.375 C59.95278308 6.57095806 59.95278308 6.57095806 59 9 C58.90043045 10.89258514 58.86442217 12.78864573 58.8581543 14.68383789 C58.85111984 15.87590347 58.84408539 17.06796906 58.83683777 18.29615784 C58.83267349 19.59190231 58.82850922 20.88764679 58.82421875 22.22265625 C58.81379142 23.56588017 58.80236835 24.90909669 58.78999329 26.25230408 C58.73761104 31.95779919 58.68963954 37.66316655 58.67407227 43.36889648 C58.66392389 46.8598389 58.63442098 50.35017703 58.59275246 53.84087944 C58.57461967 55.80424597 58.57707802 57.76776834 58.58000183 59.73121643 C58.48056346 67.05227932 57.69891532 72.62823815 54 79 C53.46375 79.928125 52.9275 80.85625 52.375 81.8125 C45.8217247 87.84841146 38.01856736 88.60642029 29.40234375 88.31640625 C21.79834292 87.60926036 16.14207336 85.76922801 10.375 80.6953125 C7.00698275 76.54270032 6.73818021 72.29742885 6.68115234 67.09838867 C6.66608391 66.08779892 6.66608391 66.08779892 6.65071106 65.05679321 C6.61997566 62.8438599 6.60287121 60.63104704 6.5859375 58.41796875 C6.56721805 56.87810741 6.54764405 55.33825624 6.5272522 53.79841614 C6.47600694 49.75597135 6.43634069 45.71349334 6.39910889 41.67089844 C6.35902141 37.54158357 6.30795075 33.41240602 6.2578125 29.28320312 C6.16114334 21.18889602 6.07670992 13.09452075 6 5 C3.03 4.505 3.03 4.505 0 4 C0 2.68 0 1.36 0 0 Z " fill="#282626" transform="translate(26,322)"/>
<path d="M0 0 C0.556875 0.2475 1.11375 0.495 1.6875 0.75 C2.0175 3.06 2.3475 5.37 2.6875 7.75 C3.15800781 7.32847656 3.62851562 6.90695312 4.11328125 6.47265625 C4.73589844 5.92480469 5.35851562 5.37695312 6 4.8125 C6.92232422 3.99458984 6.92232422 3.99458984 7.86328125 3.16015625 C11.93666771 0.01135002 16.77694669 0.17084836 21.6875 0.75 C25.77096499 2.11897773 28.25072057 4.05115292 30.5625 7.75 C32.05323107 11.72528286 32.80934594 15.08959336 32.89282227 19.33496094 C32.9227401 20.68590851 32.9227401 20.68590851 32.95326233 22.06414795 C32.96997482 23.02782288 32.98668732 23.9914978 33.00390625 24.984375 C33.02468735 25.97753723 33.04546844 26.97069946 33.06687927 27.99395752 C33.13219749 31.16256882 33.19117739 34.33126211 33.25 37.5 C33.29320207 39.64974802 33.33681691 41.79948778 33.38085938 43.94921875 C33.48786071 49.21605949 33.58965991 54.48298155 33.6875 59.75 C35.3375 60.41 36.9875 61.07 38.6875 61.75 C38.6875 63.07 38.6875 64.39 38.6875 65.75 C30.4375 65.75 22.1875 65.75 13.6875 65.75 C13.3575 64.43 13.0275 63.11 12.6875 61.75 C14.9975 61.09 17.3075 60.43 19.6875 59.75 C19.59516307 53.41428346 19.48784849 47.07894755 19.37011719 40.74365234 C19.33183398 38.58843747 19.29697996 36.43315884 19.265625 34.27783203 C19.2199605 31.17978124 19.16196788 28.08216909 19.1015625 24.984375 C19.09001129 24.02070007 19.07846008 23.05702515 19.06655884 22.06414795 C19.04668915 21.16351624 19.02681946 20.26288452 19.00634766 19.33496094 C18.99302399 18.54442322 18.97970032 17.7538855 18.9659729 16.93939209 C18.64820669 14.4410706 18.08970351 12.8431219 16.6875 10.75 C12.79384987 9.64802355 10.60730913 9.34119594 6.875 11 C4.4115913 12.97072696 2.84916788 14.57079889 2.4090271 17.78117371 C2.39570343 18.55616714 2.38237976 19.33116058 2.36865234 20.12963867 C2.34878265 21.01032516 2.32891296 21.89101166 2.30844116 22.79838562 C2.29111435 24.21882927 2.29111435 24.21882927 2.2734375 25.66796875 C2.25407135 26.64034988 2.2347052 27.61273102 2.2147522 28.61457825 C2.1549445 31.72212944 2.1085661 34.82971765 2.0625 37.9375 C2.02432133 40.043636 1.98526967 42.14975637 1.9453125 44.25585938 C1.84924189 49.42044605 1.76521509 54.58510582 1.6875 59.75 C3.9975 60.41 6.3075 61.07 8.6875 61.75 C8.6875 63.07 8.6875 64.39 8.6875 65.75 C-0.2225 65.75 -9.1325 65.75 -18.3125 65.75 C-17.9825 64.1 -17.6525 62.45 -17.3125 60.75 C-15.6625 60.09 -14.0125 59.43 -12.3125 58.75 C-11.9825 43.9 -11.6525 29.05 -11.3125 13.75 C-13.6225 13.09 -15.9325 12.43 -18.3125 11.75 C-17.32428498 9.21340529 -16.73122184 7.98691924 -14.32421875 6.625 C-13.55722656 6.33625 -12.79023438 6.0475 -12 5.75 C-8.94273527 4.52023486 -7.09383988 3.57021279 -4.5 1.4375 C-2.3125 -0.25 -2.3125 -0.25 0 0 Z " fill="#2B2929" transform="translate(461.3125,477.25)"/>
<path d="M0 0 C1.32 0 2.64 0 4 0 C4.33 2.64 4.66 5.28 5 8 C5.47308594 7.50628906 5.94617188 7.01257813 6.43359375 6.50390625 C10.66677296 2.40275602 13.82987329 0.00371127 19.828125 -0.203125 C24.62783339 0.24576859 27.89569421 1.92554031 31.3125 5.25 C35.21860915 11.6155112 35.32339002 18.03736473 35.4140625 25.30859375 C35.43342865 26.27531509 35.4527948 27.24203644 35.4727478 28.23805237 C35.53219191 31.30444713 35.57878769 34.37088016 35.625 37.4375 C35.66321217 39.52540636 35.70226576 41.6132975 35.7421875 43.70117188 C35.83786438 48.80065662 35.92202455 53.90021511 36 59 C37.98 59.99 39.96 60.98 42 62 C42 62.99 42 63.98 42 65 C38.06328959 65.22561734 34.12571465 65.42752827 30.1875 65.625 C29.06794922 65.68945312 27.94839844 65.75390625 26.79492188 65.8203125 C25.72177734 65.871875 24.64863281 65.9234375 23.54296875 65.9765625 C22.0583313 66.05511475 22.0583313 66.05511475 20.54370117 66.13525391 C18 66 18 66 15 64 C15.33 63.01 15.66 62.02 16 61 C18.5625 59.8125 18.5625 59.8125 21 59 C21.02532428 52.50383332 21.04285601 46.00767934 21.05493164 39.51147461 C21.059965 37.30085779 21.06679217 35.09024431 21.07543945 32.87963867 C21.08754859 29.704907 21.09323825 26.53021928 21.09765625 23.35546875 C21.10281754 22.36475876 21.10797882 21.37404877 21.11329651 20.35331726 C21.11337204 19.43258926 21.11344757 18.51186127 21.11352539 17.56323242 C21.115746 16.7527092 21.11796661 15.94218597 21.12025452 15.10710144 C21.08120448 12.80751408 21.08120448 12.80751408 20 10 C13.69860105 9.48402906 13.69860105 9.48402906 8 11.875 C5.25588586 14.79062127 4.87510019 16.28426368 4.88647461 20.17431641 C4.88658791 21.46542831 4.88658791 21.46542831 4.88670349 22.78262329 C4.89186478 23.71287323 4.89702606 24.64312317 4.90234375 25.6015625 C4.90446617 27.02896255 4.90446617 27.02896255 4.90663147 28.48519897 C4.91223988 31.53183097 4.92479381 34.57839013 4.9375 37.625 C4.94251392 39.68749894 4.94707701 41.74999903 4.95117188 43.8125 C4.96221204 48.87502817 4.97948233 53.93750173 5 59 C6.98 59.99 8.96 60.98 11 62 C11 62.99 11 63.98 11 65 C6.87536584 65.19622046 2.75028427 65.38050216 -1.375 65.5625 C-3.1384375 65.64661133 -3.1384375 65.64661133 -4.9375 65.73242188 C-6.05898437 65.78076172 -7.18046875 65.82910156 -8.3359375 65.87890625 C-9.89127197 65.94960327 -9.89127197 65.94960327 -11.47802734 66.02172852 C-14 66 -14 66 -16 65 C-16 63.68 -16 62.36 -16 61 C-14.02 60.34 -12.04 59.68 -10 59 C-9.67 43.82 -9.34 28.64 -9 13 C-10.65 13 -12.3 13 -14 13 C-14.66 12.01 -15.32 11.02 -16 10 C-11.7543805 7.06072496 -7.39726093 4.5080658 -2.85546875 2.05078125 C-1.0462025 1.13514985 -1.0462025 1.13514985 0 0 Z " fill="#2C2A2A" transform="translate(109,343)"/>
<path d="M0 0 C0.34057617 2.06298828 0.34057617 2.06298828 0.29296875 4.5703125 C0.2784668 5.91416016 0.2784668 5.91416016 0.26367188 7.28515625 C0.23853516 8.22230469 0.21339844 9.15945313 0.1875 10.125 C0.16719727 11.54232422 0.16719727 11.54232422 0.14648438 12.98828125 C0.11106306 15.32608779 0.06167271 17.66276237 0 20 C-1.98 20.99 -1.98 20.99 -4 22 C-7.57402824 17.23462902 -9.53854377 12.30264007 -11.55859375 6.70703125 C-13.2807007 3.47283038 -14.67089795 2.46118959 -18 1 C-22.74445315 1 -24.92120867 1.21542449 -28.75 4 C-38.91523313 17.55364418 -38.65329766 37.16345896 -36.5 53.3359375 C-34.95712724 61.97953148 -32.69410411 70.01425609 -26.625 76.5625 C-22.21639735 78.97673479 -18.59415874 79.30078467 -13.6875 78.375 C-10.23302851 76.60759598 -10.22162372 75.63612708 -9 72 C-8.08817951 69.07274549 -7.22444613 66.13339892 -6.375 63.1875 C-6.14554688 62.39923828 -5.91609375 61.61097656 -5.6796875 60.79882812 C-5.11756493 58.8665318 -4.55847688 56.93335316 -4 55 C-1.525 54.505 -1.525 54.505 1 54 C2.86905348 57.73810695 2.27116522 62.19831178 2.3125 66.3125 C2.34150391 67.26318359 2.37050781 68.21386719 2.40039062 69.19335938 C2.43945215 73.49313201 2.42615583 76.24033092 0.29296875 80.04296875 C-5.18456024 84.71799775 -10.83503153 84.39601019 -17.75 84.4375 C-18.70132813 84.47037109 -19.65265625 84.50324219 -20.6328125 84.53710938 C-29.34320559 84.60273562 -35.07420753 81.62438492 -41.625 76.0625 C-52.23477923 64.760241 -54.72184613 49.80295097 -54.375 34.9375 C-53.75889147 23.65391238 -49.86538165 12.291818 -42 4 C-30.17423856 -6.15802585 -13.38028653 -8.92019102 0 0 Z " fill="#272525" transform="translate(62,594)"/>
<path d="M0 0 C2.97922593 -0.02683987 5.95821295 -0.04676037 8.9375 -0.0625 C9.78763672 -0.07087891 10.63777344 -0.07925781 11.51367188 -0.08789062 C12.32255859 -0.09111328 13.13144531 -0.09433594 13.96484375 -0.09765625 C14.7137085 -0.10289307 15.46257324 -0.10812988 16.23413086 -0.11352539 C18 0 18 0 19 1 C19.10681128 2.47191984 19.14619877 3.9488153 19.15771484 5.42456055 C19.16797699 6.36611496 19.17823914 7.30766937 19.18881226 8.27775574 C19.19611359 9.30371353 19.20341492 10.32967133 19.2109375 11.38671875 C19.23901661 13.54362724 19.26768114 15.70052818 19.296875 17.85742188 C19.33808519 21.26977241 19.37495731 24.68198347 19.40136719 28.09448242 C19.42902009 31.37969453 19.47490665 34.66425752 19.5234375 37.94921875 C19.52669037 38.96505539 19.52994324 39.98089203 19.53329468 41.0275116 C19.62547872 46.35448827 19.81210369 50.4950016 23 55 C26.91379213 56.23211974 29.0167206 56.41516241 32.8125 54.8125 C35.60074781 52.50223753 36.82794737 50.51190625 37.24050903 46.88653564 C37.23606781 46.13152771 37.23162659 45.37651978 37.22705078 44.59863281 C37.22682419 43.3077475 37.22682419 43.3077475 37.22659302 41.99078369 C37.21627045 41.07085632 37.20594788 40.15092896 37.1953125 39.203125 C37.19106766 37.77996979 37.19106766 37.77996979 37.18673706 36.32806396 C37.17555448 33.30191361 37.1504533 30.2760607 37.125 27.25 C37.11496772 25.19661886 37.1058423 23.14323308 37.09765625 21.08984375 C37.07562141 16.05978146 37.04110462 11.02994114 37 6 C34.69 5.67 32.38 5.34 30 5 C30 3.68 30 2.36 30 1 C33.15849685 -0.57924842 36.5365128 -0.14316514 40 -0.125 C41.10601562 -0.13080078 41.10601562 -0.13080078 42.234375 -0.13671875 C47.7466804 -0.1266598 47.7466804 -0.1266598 50 1 C50.33 18.49 50.66 35.98 51 54 C52.98 54.99 54.96 55.98 57 57 C57 57.99 57 58.98 57 60 C54.89615302 60.81332743 52.79191143 61.62563417 50.6875 62.4375 C49.51574219 62.88996094 48.34398437 63.34242188 47.13671875 63.80859375 C45.10617185 64.57984755 43.06062074 65.31312642 41 66 C40.01 65.505 40.01 65.505 39 65 C38.40644386 62.35139573 38.25790731 59.70802678 38 57 C37.55269531 57.40992188 37.10539062 57.81984375 36.64453125 58.2421875 C31.27444414 63.02832057 27.48001163 65.47573952 19.98828125 65.25 C15.52019581 64.68819751 12.72692649 62.76621982 9.6875 59.5625 C7.21938186 55.8146169 6.87803724 52.66140742 6.79467773 48.23144531 C6.77473251 47.29077209 6.75478729 46.35009888 6.73423767 45.38092041 C6.71752518 44.37349792 6.70081268 43.36607544 6.68359375 42.328125 C6.6524221 40.77179352 6.6524221 40.77179352 6.62062073 39.184021 C6.55528592 35.87274742 6.49631483 32.56139518 6.4375 29.25 C6.39429951 27.00389815 6.35068473 24.75780422 6.30664062 22.51171875 C6.19962097 17.00789543 6.09782478 11.50399402 6 6 C3.69 5.67 1.38 5.34 -1 5 C-0.67 3.35 -0.34 1.7 0 0 Z " fill="#272525" transform="translate(249,479)"/>
<path d="M0 0 C10.89 0 21.78 0 33 0 C33 1.32 33 2.64 33 4 C29.7 4.66 26.4 5.32 23 6 C23.33 30.09 23.66 54.18 24 79 C27.10953379 80.5547669 29.56266761 80.28644437 33 80 C38.64155467 77.10557313 40.54569322 73.85092404 42.875 68.25 C43.18179688 67.55261719 43.48859375 66.85523438 43.8046875 66.13671875 C44.55225999 64.431319 45.27837067 62.71653839 46 61 C46.99 61 47.98 61 49 61 C50.88077284 64.76154568 50.22802645 69.29823274 50.25 73.4375 C50.270625 74.40494141 50.29125 75.37238281 50.3125 76.36914062 C50.32023437 77.76229492 50.32023437 77.76229492 50.328125 79.18359375 C50.34214355 80.46061157 50.34214355 80.46061157 50.35644531 81.76342773 C49.91103817 84.55820504 49.20473337 85.26909183 47 87 C44.90635681 87.36749268 44.90635681 87.36749268 42.46850586 87.35644531 C41.55423325 87.35944641 40.63996063 87.36244751 39.69798279 87.36553955 C38.22132896 87.34701935 38.22132896 87.34701935 36.71484375 87.328125 C35.70281387 87.32625183 34.690784 87.32437866 33.64808655 87.32244873 C31.50876572 87.31572549 29.36945724 87.30180565 27.23022461 87.28125 C23.94698731 87.25009004 20.66422989 87.24027902 17.38085938 87.234375 C15.30468162 87.22520534 13.22850876 87.21482968 11.15234375 87.203125 C10.16588364 87.19887512 9.17942352 87.19462524 8.16307068 87.19024658 C6.79639 87.17583527 6.79639 87.17583527 5.40209961 87.16113281 C4.59840439 87.15430481 3.79470917 87.14747681 2.96665955 87.14044189 C1 87 1 87 -1 86 C-1 84.68 -1 83.36 -1 82 C2.96 81.01 2.96 81.01 7 80 C7 55.25 7 30.5 7 5 C5.02 5 3.04 5 1 5 C0.34 4.67 -0.32 4.34 -1 4 C-0.67 2.68 -0.34 1.36 0 0 Z " fill="#272525" transform="translate(277,591)"/>
<path d="M0 0 C3.42475092 4.50059812 3.08541261 8.26920165 3.04614258 13.78417969 C3.05889221 14.81320404 3.07164185 15.84222839 3.08477783 16.9024353 C3.12106348 20.18360999 3.12378672 23.46375954 3.12426758 26.74511719 C3.14588096 30.03323342 3.17433876 33.32119442 3.206604 36.60922241 C3.22436415 38.65362391 3.23464871 40.69810667 3.23675537 42.74258423 C3.24056213 43.66719452 3.2443689 44.59180481 3.24829102 45.54443359 C3.24875427 46.35764069 3.24921753 47.17084778 3.24969482 48.00869751 C3.29383397 50.31182324 3.29383397 50.31182324 4.37426758 53.12011719 C6.34963503 52.7722501 6.34963503 52.7722501 8.37426758 52.12011719 C8.86926758 51.13011719 8.86926758 51.13011719 9.37426758 50.12011719 C10.69426758 50.12011719 12.01426758 50.12011719 13.37426758 50.12011719 C13.28321255 54.67286873 12.62684196 57.41020687 9.37426758 60.55761719 C5.88684695 63.19462172 2.96359909 64.11696499 -1.40307617 63.86230469 C-5.7182874 62.421373 -8.11130888 58.74218069 -10.62573242 55.12011719 C-11.18260742 55.88324219 -11.73948242 56.64636719 -12.31323242 57.43261719 C-15.44807661 61.07581449 -17.97552999 62.87503762 -22.78198242 63.58886719 C-31.72814899 63.67247622 -31.72814899 63.67247622 -35.87573242 61.12011719 C-38.06598557 57.36539751 -38.90748765 54.46246247 -38.62573242 50.12011719 C-36.10365195 41.99341344 -30.83204261 36.92974466 -24.18823242 32.05761719 C-22.53716792 30.8266115 -20.88993678 29.59288291 -19.25756836 28.3371582 C-17.62573242 27.12011719 -17.62573242 27.12011719 -15.89233398 26.02612305 C-13.47916179 24.37303595 -11.81277053 22.94909576 -11.15625 20.03930664 C-11.03513148 17.60043169 -11.10070901 15.24453601 -11.25073242 12.80761719 C-11.27780273 11.97166016 -11.30487305 11.13570312 -11.33276367 10.27441406 C-11.40313679 8.22186472 -11.5107492 6.17065128 -11.62573242 4.12011719 C-14.73108512 3.1441492 -16.23149314 2.96804527 -19.30932617 4.15527344 C-22.33281969 6.71988936 -22.75586663 8.73708575 -23.68823242 12.55761719 C-24.84119928 17.22792996 -25.74008016 20.13004277 -29.62573242 23.12011719 C-33.14424004 23.55221461 -35.49388799 23.75677968 -38.62573242 21.99511719 C-39.62573242 20.12011719 -39.62573242 20.12011719 -39.68823242 17.43261719 C-37.09493695 9.34763719 -31.02755429 3.84599374 -23.68823242 -0.06738281 C-16.53768903 -3.44328991 -6.74980924 -4.83249941 0 0 Z M-17.62573242 33.12011719 C-21.61409366 38.03664544 -24.75163844 42.57300426 -24.62573242 49.12011719 C-23.3278126 52.01051345 -23.3278126 52.01051345 -21.62573242 54.12011719 C-16.89431054 53.78880624 -16.89431054 53.78880624 -12.75073242 51.74511719 C-10.69844397 48.78070053 -10.50468714 46.15586401 -10.52807617 42.67089844 C-10.53129883 41.82333984 -10.53452148 40.97578125 -10.5378418 40.10253906 C-10.5462207 39.22146484 -10.55459961 38.34039063 -10.56323242 37.43261719 C-10.56774414 36.53994141 -10.57225586 35.64726563 -10.5769043 34.72753906 C-10.58868259 32.52499732 -10.60513078 30.3225912 -10.62573242 28.12011719 C-13.23854424 28.12011719 -15.84804153 31.35471448 -17.62573242 33.12011719 Z " fill="#252222" transform="translate(189.625732421875,614.8798828125)"/>
<path d="M0 0 C2.92971159 4.11388335 2.42685797 8.21693937 2.40185547 13.14697266 C2.41364838 14.17504028 2.42544128 15.20310791 2.43759155 16.2623291 C2.4728983 19.54694743 2.48202596 22.83092995 2.48779297 26.11572266 C2.50413188 29.40032436 2.52616913 32.68464109 2.55941772 35.96911621 C2.5790533 38.01241722 2.58838201 40.05584884 2.58633423 42.09924316 C2.59329315 43.02700562 2.60025208 43.95476807 2.60742188 44.91064453 C2.60868073 45.72464722 2.60993958 46.5386499 2.61123657 47.37731934 C2.8883794 49.84339628 3.63044102 51.47931471 4.86279297 53.61572266 C5.44029297 53.30634766 6.01779297 52.99697266 6.61279297 52.67822266 C8.7057348 51.68988901 10.60814572 51.09886135 12.86279297 50.61572266 C13.61279297 52.24072266 13.61279297 52.24072266 13.86279297 54.61572266 C11.79638408 58.36587212 9.76607153 61.71683038 5.86279297 63.61572266 C1.30217772 64.31010205 -2.02307659 64.29388901 -6.01220703 61.86572266 C-7.90183769 59.86493725 -9.59264439 57.89192023 -11.13720703 55.61572266 C-12.28189453 57.03884766 -12.28189453 57.03884766 -13.44970703 58.49072266 C-15.29254749 60.78182161 -16.6055812 61.9279721 -19.13720703 63.61572266 C-22.35205078 63.95166016 -22.35205078 63.95166016 -26.07470703 63.99072266 C-27.91355469 64.03326172 -27.91355469 64.03326172 -29.78955078 64.07666016 C-33.68257249 63.5406315 -34.7762719 62.67640483 -37.13720703 59.61572266 C-38.99533082 55.89947509 -38.5760318 51.67171727 -38.13720703 47.61572266 C-33.90601267 38.98408616 -25.50382795 33.21958348 -17.90673828 27.72900391 C-16.99279297 27.03162109 -16.07884766 26.33423828 -15.13720703 25.61572266 C-14.36248047 25.05755859 -13.58775391 24.49939453 -12.78955078 23.92431641 C-10.1892083 20.29121379 -10.71082303 16.70748281 -10.88720703 12.36572266 C-10.90525391 11.52525391 -10.92330078 10.68478516 -10.94189453 9.81884766 C-10.98889905 7.75064871 -11.06063979 5.68303825 -11.13720703 3.61572266 C-16.53141782 3.31696214 -16.53141782 3.31696214 -21.13720703 5.61572266 C-22.29337094 8.29802293 -23.2517801 10.84815871 -24.13720703 13.61572266 C-26.71441843 21.33386359 -26.71441843 21.33386359 -30.13720703 23.61572266 C-33.69970703 23.86572266 -33.69970703 23.86572266 -37.13720703 23.61572266 C-39.13720703 21.61572266 -39.13720703 21.61572266 -39.51220703 18.86572266 C-38.8023327 12.71347845 -34.62923841 8.59729592 -30.13720703 4.61572266 C-22.03608997 -1.41220531 -9.41483002 -6.09802218 0 0 Z M-16.01220703 32.17822266 C-20.55731249 36.88034085 -24.26369525 41.04834437 -24.57470703 47.86572266 C-24.3805623 51.44042157 -24.3805623 51.44042157 -23.07470703 53.67822266 C-19.81728628 55.25439399 -17.53080388 54.58532176 -14.13720703 53.61572266 C-11.21148488 49.90980793 -10.00432242 46.28937649 -10.03955078 41.60400391 C-10.04277344 40.84667969 -10.04599609 40.08935547 -10.04931641 39.30908203 C-10.06188477 38.13055664 -10.06188477 38.13055664 -10.07470703 36.92822266 C-10.07921875 36.1309375 -10.08373047 35.33365234 -10.08837891 34.51220703 C-10.10014853 32.54668009 -10.11808355 30.58119181 -10.13720703 28.61572266 C-13.09050617 28.61572266 -13.94973949 30.12742946 -16.01220703 32.17822266 Z " fill="#211F1F" transform="translate(369.13720703125,614.38427734375)"/>
<path d="M0 0 C7.25689242 4.04930047 11.89913351 10.17605009 14.75 17.9375 C17.91052366 29.16162999 17.18346612 40.520855 11.75 50.9375 C6.8719355 58.00571591 1.38029465 63.29866916 -7.25 64.9375 C-13.21127858 65.18405214 -18.15374759 64.13747245 -23.25 60.9375 C-24.075 60.421875 -24.9 59.90625 -25.75 59.375 C-33.63738792 51.68479678 -36.77276919 41.97665447 -37.5 31.25 C-37.29995415 20.92763399 -33.8684643 11.86810121 -26.7734375 4.37890625 C-18.91162485 -2.70513349 -9.54459974 -4.34889281 0 0 Z M-18.25 7.9375 C-24.43375539 21.59156391 -24.95013235 35.68848217 -20.25 49.9375 C-18.16588459 54.3013274 -16.2972469 57.2393354 -12.25 59.9375 C-9.27878466 60.16623769 -9.27878466 60.16623769 -6.25 58.9375 C0.73441685 51.30336995 2.75 41.07761118 2.75 30.9375 C2.06273892 21.43396789 0.5053865 12.1950411 -5.125 4.3125 C-10.74363213 0.6769145 -14.59651362 3.03413669 -18.25 7.9375 Z " fill="#272424" transform="translate(228.25,480.0625)"/>
<path d="M0 0 C9.49735529 5.45218545 14.57350643 12.39480095 17.6875 22.875 C20.18158066 34.79382777 17.56416044 45.51038109 11.109375 55.671875 C6.81590312 61.28046439 1.39884804 64.84759255 -5.625 65.9375 C-13.35164303 66.02501861 -18.96074803 64.26926786 -24.69140625 59.05859375 C-33.10714104 50.39488151 -35.26372894 41.41720568 -35.16845703 29.64746094 C-34.79918029 20.55904365 -31.79132639 12.06486232 -25.41015625 5.40625 C-17.6175719 -1.00515419 -9.65215252 -2.82907919 0 0 Z M-14.3125 6.5 C-21.12629844 15.91265105 -22.32622853 27.29740106 -21.16796875 38.62109375 C-19.87902782 46.4938337 -18.17990209 53.99036246 -12.625 59.9375 C-9.72793293 61.18427006 -9.72793293 61.18427006 -6.625 60.9375 C-1.00946711 57.86232722 1.25620543 52.57832301 3.06640625 46.6875 C6.04342196 34.02997867 5.62548144 19.59825014 -1.1875 8.25 C-2.62774961 6.08289544 -3.28247633 5.10876184 -5.625 3.9375 C-9.89625392 3.27308272 -11.12367754 3.45949486 -14.3125 6.5 Z " fill="#252323" transform="translate(34.625,479.0625)"/>
<path d="M0 0 C7.52702294 6.56441965 11.69879049 13.69112801 12.41015625 23.66015625 C12.89745411 35.1899521 11.6653213 44.82351672 4.75 54.4375 C-0.83463539 59.64136479 -6.74072345 62.80467543 -14.45703125 63.1875 C-22.1294012 62.6217953 -28.1240151 58.99184278 -33.2421875 53.38671875 C-39.82187778 44.4529615 -42.08701823 33.74262107 -40.5546875 22.828125 C-38.22777211 12.29014038 -33.94364898 4.25877623 -25 -2 C-16.96506916 -6.01746542 -7.35960995 -4.91966719 0 0 Z M-20.8359375 4.14453125 C-27.59141446 14.9124895 -28.14101778 29.02092716 -25.734375 41.16796875 C-23.48417333 50.00005308 -23.48417333 50.00005308 -18 57 C-15.13362718 58.08892339 -15.13362718 58.08892339 -12 58 C-6.68053906 55.2136157 -4.80776974 50.45663216 -3 45 C0.34138024 31.87989115 -0.23483071 18.38443774 -6 6 C-8.5598577 2.67910353 -9.87933091 1.23347273 -14 0.375 C-17.06809036 1.01418549 -18.76688602 1.76178486 -20.8359375 4.14453125 Z " fill="#252323" transform="translate(426,482)"/>
<path d="M0 0 C1.7265625 1.23046875 1.7265625 1.23046875 2.53515625 3.02734375 C2.76725443 5.69884118 2.37388003 7.86599038 1.7890625 10.48046875 C1.59441406 11.3725 1.39976563 12.26453125 1.19921875 13.18359375 C0.96525391 14.19679688 0.96525391 14.19679688 0.7265625 15.23046875 C-0.9234375 15.56046875 -2.5734375 15.89046875 -4.2734375 16.23046875 C-8.0855922 10.63930853 -8.0855922 10.63930853 -9.3359375 7.91796875 C-10.22416591 5.87149004 -10.22416591 5.87149004 -13.2734375 5.23046875 C-14.44333199 10.99146178 -14.60547791 16.74952825 -14.8359375 22.60546875 C-14.87912109 23.62769531 -14.92230469 24.64992188 -14.96679688 25.703125 C-15.07231463 28.2121028 -15.17332513 30.72126945 -15.2734375 33.23046875 C-11.3134375 33.23046875 -7.3534375 33.23046875 -3.2734375 33.23046875 C-3.2734375 35.21046875 -3.2734375 37.19046875 -3.2734375 39.23046875 C-7.2334375 39.23046875 -11.1934375 39.23046875 -15.2734375 39.23046875 C-14.9434375 55.40046875 -14.6134375 71.57046875 -14.2734375 88.23046875 C-10.9734375 89.88046875 -7.6734375 91.53046875 -4.2734375 93.23046875 C-4.6034375 94.22046875 -4.9334375 95.21046875 -5.2734375 96.23046875 C-15.1734375 96.23046875 -25.0734375 96.23046875 -35.2734375 96.23046875 C-35.2734375 94.91046875 -35.2734375 93.59046875 -35.2734375 92.23046875 C-33.2934375 91.24046875 -31.3134375 90.25046875 -29.2734375 89.23046875 C-28.9434375 73.06046875 -28.6134375 56.89046875 -28.2734375 40.23046875 C-29.9234375 40.23046875 -31.5734375 40.23046875 -33.2734375 40.23046875 C-33.9334375 38.91046875 -34.5934375 37.59046875 -35.2734375 36.23046875 C-30.5234375 33.23046875 -30.5234375 33.23046875 -28.2734375 33.23046875 C-28.24765625 32.19148438 -28.221875 31.1525 -28.1953125 30.08203125 C-27.82636792 19.87047883 -27.05418881 9.78237443 -19.2734375 2.23046875 C-13.77475897 -1.65884045 -6.35643108 -2.15157547 0 0 Z " fill="#2B2929" transform="translate(91.2734375,446.76953125)"/>
<path d="M0 0 C4.14910901 3.72407833 7.69371667 8.87694429 8.6015625 14.4375 C8.69339707 16.49837573 8.73158787 18.56208529 8.7265625 20.625 C8.73042969 22.22408203 8.73042969 22.22408203 8.734375 23.85546875 C8.6015625 26.4375 8.6015625 26.4375 7.6015625 27.4375 C5.2258773 27.5258967 2.87947576 27.55280305 0.50390625 27.53515625 C-0.55938148 27.53303383 -0.55938148 27.53303383 -1.64414978 27.53086853 C-3.91645462 27.52525443 -6.18866225 27.51269963 -8.4609375 27.5 C-9.99804546 27.49498681 -11.53515495 27.49042359 -13.07226562 27.48632812 C-16.84769392 27.47528042 -20.62304921 27.45800641 -24.3984375 27.4375 C-23.71783076 40.47293365 -23.71783076 40.47293365 -17.3984375 51.4375 C-13.84259526 54.10438168 -11.17303505 54.66046853 -6.8359375 54.4375 C-2.32631121 53.74779245 -0.25392128 52.04884714 2.6015625 48.4375 C3.1378125 47.674375 3.6740625 46.91125 4.2265625 46.125 C4.6803125 45.568125 5.1340625 45.01125 5.6015625 44.4375 C6.5915625 44.4375 7.5815625 44.4375 8.6015625 44.4375 C9.24568739 48.73166593 8.47526294 51.11175455 6.0390625 54.5625 C2.15391557 59.36612138 -2.27730252 62.21098044 -8.3984375 63.4375 C-14.74092736 63.99840046 -20.89547883 63.92233956 -26.3984375 60.4375 C-31.97013509 55.49826538 -35.3454246 50.56266243 -37.3984375 43.4375 C-37.57890625 42.86773437 -37.759375 42.29796875 -37.9453125 41.7109375 C-40.31864841 29.80333836 -38.33491898 18.74810846 -32.6484375 8.1875 C-24.30933827 -2.0047324 -12.28661128 -7.91933239 0 0 Z M-19.11328125 4.85546875 C-23.1285445 9.79827001 -23.86250331 15.32785025 -24.3984375 21.4375 C-19.35220375 24.54752895 -13.99139325 23.6049246 -8.3984375 22.4375 C-5.01543269 20.55833474 -5.01543269 20.55833474 -3.3984375 17.4375 C-2.54359666 12.40343725 -3.64207928 8.45322179 -6.06640625 4.05859375 C-7.45568362 2.0979343 -7.45568362 2.0979343 -10.7734375 1.125 C-14.55198536 1.45073688 -16.38169429 2.21129257 -19.11328125 4.85546875 Z " fill="#2A2828" transform="translate(268.3984375,346.5625)"/>
<path d="M0 0 C6.00532484 7.42763862 6.6201306 14.72688425 6 24 C5 25 5 25 1.94897461 25.11352539 C0.60008729 25.11336634 -0.74880614 25.10767612 -2.09765625 25.09765625 C-3.16094398 25.09553383 -3.16094398 25.09553383 -4.24571228 25.09336853 C-6.51801712 25.08775443 -8.79022475 25.07519963 -11.0625 25.0625 C-12.59960796 25.05748681 -14.13671745 25.05292359 -15.67382812 25.04882812 C-19.44925642 25.03778042 -23.22461171 25.02050641 -27 25 C-26.81445696 26.87089235 -26.62874133 28.74176791 -26.44177246 30.61251831 C-26.30127389 32.04113655 -26.16996527 33.47066663 -26.04394531 34.90063477 C-25.36895834 40.89228945 -23.33684457 45.19578651 -19.4375 49.875 C-15.9745521 52.58513314 -12.18568924 52.28377554 -8 52 C-2.95707327 50.28540491 -0.83163149 47.83394505 1.82421875 43.42578125 C2.21222656 42.95527344 2.60023438 42.48476563 3 42 C3.99 42 4.98 42 6 42 C6.64412489 46.29416593 5.87370044 48.67425455 3.4375 52.125 C0.31905213 56.33363696 -3.85459861 59.44565234 -9.0612793 60.36328125 C-11.2428113 60.49929883 -13.37788405 60.49769831 -15.5625 60.4375 C-16.29146484 60.44458984 -17.02042969 60.45167969 -17.77148438 60.45898438 C-23.46626167 60.39234882 -27.52195625 59.07646354 -31.9765625 55.34375 C-40.26638217 46.07172421 -41.8429345 36.40415152 -41.390625 24.328125 C-40.70426553 14.34550432 -36.44595038 6.10864021 -29.25 -0.75 C-20.25900763 -8.26188272 -8.84382124 -7.46009411 0 0 Z M-21 2 C-25.47776474 7.50125383 -27 12.9353633 -27 20 C-24.41603321 20.08112454 -21.83462432 20.14054748 -19.25 20.1875 C-18.15558594 20.22520508 -18.15558594 20.22520508 -17.0390625 20.26367188 C-13.81524984 20.30763296 -11.430615 20.22386503 -8.54296875 18.72265625 C-6.00770661 15.89214839 -5.80616893 12.64937111 -6 9 C-6.74498528 6.43005078 -7.7524688 4.39909845 -9 2 C-9.33 1.34 -9.66 0.68 -10 0 C-14.75672379 -1.40539567 -17.14859978 -1.14193176 -21 2 Z " fill="#292727" transform="translate(484,618)"/>
<path d="M0 0 C4.18852461 3.67870419 7.7297159 8.88210756 8.63671875 14.4375 C8.72855332 16.49837573 8.76674412 18.56208529 8.76171875 20.625 C8.76558594 22.22408203 8.76558594 22.22408203 8.76953125 23.85546875 C8.63671875 26.4375 8.63671875 26.4375 7.63671875 27.4375 C5.34683094 27.59638092 3.05228434 27.68888073 0.7578125 27.75390625 C0.07115005 27.77468735 -0.61551239 27.79546844 -1.32298279 27.81687927 C-3.5238106 27.88244143 -5.724761 27.94129015 -7.92578125 28 C-9.41472639 28.04317892 -10.90365898 28.086793 -12.39257812 28.13085938 C-16.04934678 28.2381293 -19.70625443 28.33937772 -23.36328125 28.4375 C-23.59645794 36.22349024 -22.98642427 42.40091357 -19.36328125 49.4375 C-16.09075826 52.71002299 -13.73131257 54.33226682 -9.11328125 54.6875 C-4.91861083 54.40785531 -2.84133696 53.78140711 0.63671875 51.4375 C2.04747739 49.63908247 3.28154692 47.82082644 4.4609375 45.86328125 C4.84894531 45.39277344 5.23695313 44.92226563 5.63671875 44.4375 C6.62671875 44.4375 7.61671875 44.4375 8.63671875 44.4375 C9.28084364 48.73166593 8.51041919 51.11175455 6.07421875 54.5625 C2.9564293 58.77024836 -1.21719187 61.85387544 -6.40844727 62.81689453 C-8.57467017 62.97271628 -10.69232317 62.98410375 -12.86328125 62.9375 C-13.94416016 62.96070313 -13.94416016 62.96070313 -15.046875 62.984375 C-21.86900737 62.93502865 -26.18306077 60.61772048 -31.05078125 55.75 C-38.61772489 45.91047593 -39.49125118 34.0896998 -38.08984375 22.09765625 C-36.05909984 12.72941312 -31.43800307 4.68970645 -23.36328125 -0.5625 C-15.70487146 -4.49372634 -7.44620897 -4.72113948 0 0 Z M-18.36328125 4.4375 C-22.70187133 9.39588867 -23.80497958 15.01155723 -24.36328125 21.4375 C-22.38701389 23.41376736 -18.79983865 22.75684627 -16.11328125 22.8125 C-15.44425781 22.84988281 -14.77523437 22.88726563 -14.0859375 22.92578125 C-10.17471207 22.99493848 -8.52078792 22.56083856 -5.41015625 20.125 C-3.10125269 17.54208328 -3.10125269 17.54208328 -2.86328125 14.0625 C-3.44630698 9.83556342 -4.3099795 7.17744247 -6.36328125 3.4375 C-10.83741062 0.22171952 -14.14475442 1.35077305 -18.36328125 4.4375 Z " fill="#282626" transform="translate(137.36328125,615.5625)"/>
<path d="M0 0 C0.99 0.33 1.98 0.66 3 1 C3.00879936 2.6437133 3.00879936 2.6437133 3.01777649 4.32063293 C3.0749316 14.63586116 3.14765521 24.9508771 3.23571491 35.26588917 C3.28048705 40.56925253 3.319728 45.87253785 3.34643555 51.17602539 C3.37240034 56.29196213 3.41275406 61.40759964 3.46318626 66.52335167 C3.47990127 68.47738619 3.4913866 70.43147253 3.49761391 72.38556862 C3.50720475 75.11779958 3.53520315 77.84925695 3.56762695 80.58129883 C3.56547432 81.79941757 3.56547432 81.79941757 3.5632782 83.04214478 C3.59615791 87.23611071 3.59615791 87.23611071 5.32780457 90.95195007 C7.74268807 92.46548039 10.27500599 93.21277951 13 94 C13 94.99 13 95.98 13 97 C9.31090249 97.85077778 5.89598138 98.12858163 2.11328125 98.1328125 C1.01048828 98.13410156 -0.09230469 98.13539063 -1.22851562 98.13671875 C-2.36998047 98.13285156 -3.51144531 98.12898437 -4.6875 98.125 C-5.84056641 98.12886719 -6.99363281 98.13273438 -8.18164062 98.13671875 C-9.28056641 98.13542969 -10.37949219 98.13414062 -11.51171875 98.1328125 C-12.51678467 98.13168457 -13.52185059 98.13055664 -14.55737305 98.12939453 C-17 98 -17 98 -19 97 C-18.9375 95.1875 -18.9375 95.1875 -18 93 C-15.69 92.01 -13.38 91.02 -11 90 C-11 64.59 -11 39.18 -11 13 C-12.98 12.01 -14.96 11.02 -17 10 C-17 9.01 -17 8.02 -17 7 C-16.02417969 6.66226563 -15.04835938 6.32453125 -14.04296875 5.9765625 C-12.75773537 5.52626175 -11.47258335 5.07572874 -10.1875 4.625 C-9.54490234 4.40328125 -8.90230469 4.1815625 -8.24023438 3.953125 C-5.18313283 2.8760115 -2.71407209 1.80938139 0 0 Z " fill="#2C2A2A" transform="translate(84,580)"/>
<path d="M0 0 C1.10988281 -0.01417969 2.21976562 -0.02835937 3.36328125 -0.04296875 C6.84155598 0.19818073 9.50113427 0.77599588 12.6875 2.1875 C15.12224768 7.48042974 14.66090692 11.63908057 13.6875 17.1875 C12.3675 17.5175 11.0475 17.8475 9.6875 18.1875 C7.91026301 15.44086101 6.65472141 13.08096958 5.6875 9.9375 C5.3575 9.03 5.0275 8.1225 4.6875 7.1875 C0.97786293 5.95095431 -2.45679078 5.6366844 -6.3125 6.1875 C-8.93966577 7.64747987 -8.93966577 7.64747987 -10.3125 10.1875 C-10.93481411 13.84359539 -10.7535493 15.51516875 -8.7109375 18.62890625 C-5.94792025 21.57642465 -2.97334229 23.34075434 0.5625 25.1875 C7.07804074 28.63443123 13.53899497 32.15654788 16.6875 39.1875 C17.60500694 45.15894098 17.71579012 51.31637732 14.6875 56.6875 C10.55789787 62.20139129 4.60151823 65.58363528 -2.10546875 66.97265625 C-8.94996843 67.63893498 -15.42812407 66.90394796 -21.3125 63.1875 C-23.12437842 61.37562158 -22.44484462 58.9177249 -22.44921875 56.50976562 C-22.44535156 55.76404297 -22.44148438 55.01832031 -22.4375 54.25 C-22.44136719 53.50814453 -22.44523437 52.76628906 -22.44921875 52.00195312 C-22.43913501 46.44077002 -22.43913501 46.44077002 -21.3125 44.1875 C-19.9925 44.1875 -18.6725 44.1875 -17.3125 44.1875 C-16.86519531 45.16332031 -16.41789062 46.13914062 -15.95703125 47.14453125 C-15.34711434 48.43004844 -14.73639472 49.715185 -14.125 51 C-13.83302734 51.64259766 -13.54105469 52.28519531 -13.24023438 52.94726562 C-11.25025823 57.07700107 -9.57527675 59.39405546 -5.3125 61.1875 C-1.68600049 61.27666154 -1.68600049 61.27666154 1.6875 60.1875 C4.43974258 57.32004727 5.13894547 55.18898645 5.1875 51.25 C5.2184375 50.41597656 5.249375 49.58195313 5.28125 48.72265625 C4.11518981 43.7438861 0.00831032 41.28968629 -4.125 38.72265625 C-6.21713251 37.47329788 -8.32035232 36.24545812 -10.4296875 35.02539062 C-15.59286592 31.9323545 -19.55705348 28.69839304 -22.3125 23.1875 C-23.17184226 17.27031474 -22.37683109 12.89244251 -18.9453125 7.98046875 C-13.71989073 2.24250561 -7.6147287 0.04391424 0 0 Z " fill="#262424" transform="translate(333.3125,477.8125)"/>
<path d="M0 0 C1.29004296 2.58008592 1.20410224 4.55741574 1.25 7.4375 C1.27578125 8.40558594 1.3015625 9.37367188 1.328125 10.37109375 C1 13 1 13 -0.515625 14.84765625 C-1.00546875 15.22792969 -1.4953125 15.60820312 -2 16 C-4.49955394 13.7590206 -6.01030948 11.97895148 -7.5 8.9375 C-9.07014997 5.86262297 -9.95307003 4.56699256 -13 3 C-16.54949951 2.70420837 -19.59826233 2.95331149 -23 4 C-24.08311451 9.41398331 -24.08311451 9.41398331 -23.0625 14.6875 C-20.15000012 17.95303017 -16.76881599 19.82876722 -13 22 C1.32846 30.33655854 1.32846 30.33655854 3.59375 38.01171875 C4.91811158 44.49344997 3.62165951 49.00337477 0.55078125 54.6953125 C-2.52974392 59.27342296 -6.22326664 61.28247306 -11.25 63.3125 C-20.35374539 64.98151999 -26.00445971 63.99851343 -35 61 C-35 54.73 -35 48.46 -35 42 C-33.515 41.505 -33.515 41.505 -32 41 C-24 52.42857143 -24 52.42857143 -24 57 C-19.95269451 58.34910183 -16.23155403 58.54473363 -12 58 C-8.9954981 55.74662357 -8.96193587 53.8184634 -8.1875 50.125 C-7.8466249 46.31856136 -8.26410348 43.47179305 -10 40 C-11.74059819 38.98219589 -11.74059819 38.98219589 -14 38 C-32.66974264 28.31265485 -32.66974264 28.31265485 -35.73828125 20 C-36.71734349 14.93656698 -35.63578055 10.38993796 -33 6 C-25.39990631 -3.09957164 -10.39580375 -6.66397677 0 0 Z " fill="#282626" transform="translate(363,346)"/>
<path d="M0 0 C0.99 0 1.98 0 3 0 C3.33 3.3 3.66 6.6 4 10 C4.845625 8.906875 5.69125 7.81375 6.5625 6.6875 C9.77209897 2.95558422 12.27210389 1.37538796 17 0 C20.84883371 0.17901552 23.18720254 1.38811664 26 4 C27.20190901 7.60572704 27.32670315 10.2102435 27 14 C25.26613148 16.84849829 24.03179693 18.51634519 21 19.9375 C18.38347809 20.01926631 17.14197204 19.49938043 15 18 C13.00474006 15.00711009 13 13.76914404 13 10 C11.01979579 10.44033992 11.01979579 10.44033992 9 12 C6.21124663 18.02764494 5.58477501 22.94889459 5.70703125 29.53125 C5.71339851 30.84603333 5.71339851 30.84603333 5.71989441 32.18737793 C5.7365487 34.95857823 5.77417491 37.72902336 5.8125 40.5 C5.82756401 42.39061442 5.8412494 44.28124036 5.85351562 46.171875 C5.88640861 50.78153639 5.93809745 55.39064062 6 60 C9.3 60.66 12.6 61.32 16 62 C16 62.99 16 63.98 16 65 C12.54957827 66.05322058 9.37056649 66.12911555 5.7734375 66.1328125 C4.5771875 66.13410156 3.3809375 66.13539063 2.1484375 66.13671875 C0.90320313 66.13285156 -0.34203125 66.12898437 -1.625 66.125 C-2.87796875 66.12886719 -4.1309375 66.13273438 -5.421875 66.13671875 C-7.21238281 66.13478516 -7.21238281 66.13478516 -9.0390625 66.1328125 C-10.68189209 66.13112061 -10.68189209 66.13112061 -12.35791016 66.12939453 C-15 66 -15 66 -17 65 C-16.67 63.68 -16.34 62.36 -16 61 C-12.535 60.505 -12.535 60.505 -9 60 C-9 44.82 -9 29.64 -9 14 C-11.31 13.67 -13.62 13.34 -16 13 C-16 11.68 -16 10.36 -16 9 C-15.01257813 8.51789062 -14.02515625 8.03578125 -13.0078125 7.5390625 C-11.7134369 6.90125423 -10.41917179 6.26322171 -9.125 5.625 C-8.47402344 5.30789063 -7.82304687 4.99078125 -7.15234375 4.6640625 C-4.41822959 3.31109879 -2.17227482 2.17227482 0 0 Z " fill="#232020" transform="translate(219,612)"/>
<path d="M0 0 C0.99 0 1.98 0 3 0 C3.66 3.3 4.32 6.6 5 10 C6.051875 8.72125 7.10375 7.4425 8.1875 6.125 C12.94459607 0.72789301 12.94459607 0.72789301 17 0 C20.51143953 0.14332406 22.43158576 0.60057378 25.3125 2.625 C27.59446178 5.83664991 27.93230087 8.0734504 28 12 C25.9375 17.0625 25.9375 17.0625 24 19 C20.625 19.3125 20.625 19.3125 17 19 C14.62802321 16.70981552 13.38186514 13.97632492 12 11 C7.84509705 14.32392236 6.88786249 17.94428599 6 23 C5.75995317 25.72267877 5.7413334 28.41658516 5.76953125 31.1484375 C5.76998947 31.8870401 5.77044769 32.6256427 5.7709198 33.3866272 C5.77391579 34.93110788 5.78172129 36.47558627 5.79418945 38.02001953 C5.81261473 40.38975627 5.81469759 42.75910485 5.81445312 45.12890625 C5.81936317 46.63542006 5.82518923 48.14193123 5.83203125 49.6484375 C5.83314407 50.35672699 5.8342569 51.06501648 5.83540344 51.79476929 C5.81992084 55.52219768 5.81992084 55.52219768 7 59 C9.11327425 59.90725434 9.11327425 59.90725434 11.5625 60.625 C12.80193359 61.01558594 12.80193359 61.01558594 14.06640625 61.4140625 C14.70449219 61.60742188 15.34257812 61.80078125 16 62 C16 62.99 16 63.98 16 65 C11.78271077 65.16777849 7.56522682 65.32832034 3.34741211 65.48217773 C1.91276652 65.53552897 0.47819286 65.5908529 -0.95629883 65.64819336 C-3.01888519 65.730297 -5.08162668 65.80528996 -7.14453125 65.87890625 C-9.00621948 65.94960327 -9.00621948 65.94960327 -10.90551758 66.02172852 C-14 66 -14 66 -17 65 C-16.375 63.125 -16.375 63.125 -15 61 C-13.02 60.34 -11.04 59.68 -9 59 C-9 44.48 -9 29.96 -9 15 C-11.31 14.01 -13.62 13.02 -16 12 C-15 9 -15 9 -12.3828125 7.4296875 C-11.30773437 6.91664063 -10.23265625 6.40359375 -9.125 5.875 C-8.05507813 5.35679687 -6.98515625 4.83859375 -5.8828125 4.3046875 C-3 3 -3 3 0 2 C0 1.34 0 0.68 0 0 Z " fill="#232121" transform="translate(297,343)"/>
<path d="M0 0 C7.92 0 15.84 0 24 0 C24.33 1.32 24.66 2.64 25 4 C24 5 24 5 20.9375 5.0625 C19.968125 5.041875 18.99875 5.02125 18 5 C18.2266333 5.70495605 18.4532666 6.40991211 18.68676758 7.13623047 C19.72966848 10.38216981 20.77109262 13.62858119 21.8125 16.875 C22.34713867 18.53789062 22.34713867 18.53789062 22.89257812 20.234375 C24.9984107 26.80302706 27.04880012 33.38370111 29 40 C31.44084354 33.64175324 33.64581253 27.22708735 35.75 20.75 C36.07871094 19.7703125 36.40742188 18.790625 36.74609375 17.78125 C37.05160156 16.83765625 37.35710937 15.8940625 37.671875 14.921875 C37.9512793 14.07206055 38.23068359 13.22224609 38.51855469 12.34667969 C39.04482356 9.78151922 39.04826137 8.39659251 38 6 C35.00384054 4.6954344 35.00384054 4.6954344 32 4 C32 2.68 32 1.36 32 0 C38.27 0 44.54 0 51 0 C50.67 1.65 50.34 3.3 50 5 C49.01 5.66 48.02 6.32 47 7 C45.88903434 9.37328951 45.88903434 9.37328951 45.03881836 12.22827148 C44.6851268 13.3195787 44.33143524 14.41088593 43.96702576 15.53526306 C43.59505569 16.71858719 43.22308563 17.90191132 42.83984375 19.12109375 C42.44930313 20.3319313 42.05876251 21.54276886 41.65638733 22.79029846 C40.61896339 26.01070955 39.59029134 29.2336324 38.56646729 32.45837402 C37.12314465 36.99997324 35.66764661 41.53764547 34.207901 46.07398987 C33.43131121 48.48955963 32.65987175 50.90679229 31.89402771 53.32579041 C31.54348831 54.42024979 31.19294891 55.51470917 30.83178711 56.64233398 C30.52550888 57.60670883 30.21923065 58.57108368 29.90367126 59.56468201 C29 62 29 62 27 65 C25.13066101 64.81967163 25.13066101 64.81967163 23 64 C21.84236145 61.81192017 21.84236145 61.81192017 20.90942383 58.88525391 C20.55258011 57.79387115 20.19573639 56.7024884 19.82807922 55.57803345 C19.45813339 54.38954803 19.08818756 53.20106262 18.70703125 51.9765625 C18.31553391 50.76431 17.92403656 49.5520575 17.52067566 48.30307007 C16.4816525 45.07569482 15.45721939 41.84440248 14.43951416 38.61029053 C13.40189648 35.32492205 12.34575444 32.04552835 11.29101562 28.765625 C9.43894373 22.99546704 7.60152467 17.22087325 5.77668762 11.44204712 C5.19832297 9.62356348 4.60343918 7.81031753 4 6 C1.49552484 4.78130071 1.49552484 4.78130071 -1 4 C-0.67 2.68 -0.34 1.36 0 0 Z " fill="#2D2B2B" transform="translate(179,345)"/>
<path d="M0 0 C0.99 0 1.98 0 3 0 C3 5.61 3 11.22 3 17 C6.3 17 9.6 17 13 17 C13.38218767 18.65614657 13.71395102 20.32457024 14 22 C13 23 13 23 10.71484375 23.09765625 C9.34005859 23.08025391 9.34005859 23.08025391 7.9375 23.0625 C7.01839844 23.05347656 6.09929687 23.04445313 5.15234375 23.03515625 C4.44207031 23.02355469 3.73179687 23.01195312 3 23 C3.11854435 29.01412447 3.24281248 35.02809367 3.37231445 41.04199219 C3.41554367 43.0865561 3.45722692 45.13115332 3.49731445 47.17578125 C3.55530888 50.11989363 3.61891844 53.06384022 3.68359375 56.0078125 C3.70030624 56.9174173 3.71701874 57.82702209 3.73423767 58.76419067 C3.83873256 63.27211243 4.10303385 67.56305003 5 72 C8.26460973 70.19587357 9.88929795 69.16605307 12 66 C13.32 66.33 14.64 66.66 16 67 C14.37753123 73.53257162 12.83929746 77.40658618 7 81 C3.06448665 82.1047055 1.01984203 82.44038633 -2.75 80.8125 C-6.32334653 77.93397085 -8.11460874 75.48890502 -9 71 C-9.08449436 69.38164515 -9.11779 67.7602019 -9.11352539 66.13964844 C-9.11344986 65.17895447 -9.11337433 64.2182605 -9.11329651 63.22845459 C-9.10813522 62.19915833 -9.10297394 61.16986206 -9.09765625 60.109375 C-9.0962413 59.04962463 -9.09482635 57.98987427 -9.09336853 56.89801025 C-9.08777382 53.51531138 -9.07522225 50.13267885 -9.0625 46.75 C-9.05748432 44.45573012 -9.05292153 42.16145921 -9.04882812 39.8671875 C-9.03780611 34.24476906 -9.02107321 28.62238927 -9 23 C-10.98 23 -12.96 23 -15 23 C-14.9375 20.875 -14.9375 20.875 -14 18 C-12.62109375 16.75390625 -12.62109375 16.75390625 -10.875 15.4375 C-6.3774733 11.93016951 -4.17806648 7.40740806 -1.578125 2.4140625 C-1.05734375 1.61742187 -0.5365625 0.82078125 0 0 Z " fill="#211F1F" transform="translate(368,463)"/>
<path d="M0 0 C0.99 0 1.98 0 3 0 C4.59412284 3.18824568 4.10174735 6.62896662 4.0625 10.125 C4.05798828 10.87910156 4.05347656 11.63320313 4.04882812 12.41015625 C4.03703499 14.27347127 4.01909942 16.13674555 4 18 C7.3 18 10.6 18 14 18 C13.67 19.32 13.34 20.64 13 22 C10.03 22.33 7.06 22.66 4 23 C3.67 38.51 3.34 54.02 3 70 C3.66 70 4.32 70 5 70 C5.66 70.66 6.32 71.32 7 72 C7.7425 71.175 8.485 70.35 9.25 69.5 C12 67 12 67 16 67 C15.86483598 72.40656067 13.6639311 75.52531475 10.1015625 79.3515625 C6.60955002 82.09065036 3.33812739 82.46479936 -1 82 C-3.875 81.125 -3.875 81.125 -6 79 C-9.10240844 72.48739945 -9.40746749 66.15561668 -9.29296875 59.05859375 C-9.28872391 58.05031021 -9.28447906 57.04202667 -9.28010559 56.00318909 C-9.26344683 52.81434284 -9.22581877 49.626152 -9.1875 46.4375 C-9.17243661 44.26237898 -9.15875112 42.08724796 -9.14648438 39.91210938 C-9.11358548 34.60785307 -9.06351575 29.30397338 -9 24 C-10.98 24 -12.96 24 -15 24 C-14.62403791 21.21788056 -14.32681541 19.4120716 -12.5625 17.1875 C-11 16 -11 16 -9 16 C-9 15.34 -9 14.68 -9 14 C-8.34 14 -7.68 14 -7 14 C-6.58621094 13.17242187 -6.58621094 13.17242187 -6.1640625 12.328125 C-4.109375 8.21875 -2.0546875 4.109375 0 0 Z " fill="#1C1A1A" transform="translate(414,328)"/>
<path d="M0 0 C5.0539719 0.13021506 7.78560793 1.31456203 11.8125 4.375 C14.77105782 9.10869251 15.90927886 13.43975342 16.01782227 18.95996094 C16.03776749 19.86059265 16.05771271 20.76122437 16.07826233 21.68914795 C16.09497482 22.65282288 16.11168732 23.6164978 16.12890625 24.609375 C16.14968735 25.60253723 16.17046844 26.59569946 16.19187927 27.61895752 C16.25719749 30.78756882 16.31617739 33.95626211 16.375 37.125 C16.41820207 39.27474802 16.46181691 41.42448778 16.50585938 43.57421875 C16.61286071 48.84105949 16.71465991 54.10798155 16.8125 59.375 C18.4625 60.035 20.1125 60.695 21.8125 61.375 C21.8125 62.695 21.8125 64.015 21.8125 65.375 C13.5625 65.375 5.3125 65.375 -3.1875 65.375 C-3.5175 64.055 -3.8475 62.735 -4.1875 61.375 C-1.8775 60.715 0.4325 60.055 2.8125 59.375 C2.72016307 53.03928346 2.61284849 46.70394755 2.49511719 40.36865234 C2.45683398 38.21343747 2.42197996 36.05815884 2.390625 33.90283203 C2.3449605 30.80478124 2.28696788 27.70716909 2.2265625 24.609375 C2.21501129 23.64570007 2.20346008 22.68202515 2.19155884 21.68914795 C2.17168915 20.78851624 2.15181946 19.88788452 2.13134766 18.95996094 C2.11802399 18.16942322 2.10470032 17.3788855 2.0909729 16.56439209 C1.77326995 14.06656794 1.22115294 12.46384339 -0.1875 10.375 C-4.20462758 9.46546168 -8.07852857 9.25048571 -12.1875 9.375 C-11.23020084 8.24911986 -10.27162105 7.1243285 -9.3125 6 C-8.77882813 5.37351562 -8.24515625 4.74703125 -7.6953125 4.1015625 C-5.06072282 1.08475256 -4.01956906 0.06918363 0 0 Z " fill="#292727" transform="translate(478.1875,477.625)"/>
<path d="M0 0 C0.99 0.33 1.98 0.66 3 1 C3.33 20.14 3.66 39.28 4 59 C6.31 59.99 8.62 60.98 11 62 C10.34 63.32 9.68 64.64 9 66 C4.89584811 66.02898097 0.79172247 66.0467922 -3.3125 66.0625 C-4.47974609 66.07087891 -5.64699219 66.07925781 -6.84960938 66.08789062 C-7.96787109 66.09111328 -9.08613281 66.09433594 -10.23828125 66.09765625 C-11.7857605 66.10551147 -11.7857605 66.10551147 -13.36450195 66.11352539 C-16 66 -16 66 -19 65 C-18.9375 63.1875 -18.9375 63.1875 -18 61 C-15.69 60.01 -13.38 59.02 -11 58 C-10.67 43.15 -10.34 28.3 -10 13 C-12.97 12.505 -12.97 12.505 -16 12 C-16.33 10.68 -16.66 9.36 -17 8 C-16.19175781 7.67386719 -15.38351562 7.34773438 -14.55078125 7.01171875 C-12.94783203 6.35623047 -12.94783203 6.35623047 -11.3125 5.6875 C-10.25675781 5.25824219 -9.20101563 4.82898438 -8.11328125 4.38671875 C-4.98944554 3.0880645 -4.98944554 3.0880645 -2.29296875 1.26953125 C-1.53628906 0.85058594 -0.77960938 0.43164062 0 0 Z " fill="#2F2D2D" transform="translate(387,343)"/>
<path d="M0 0 C0.99 0.33 1.98 0.66 3 1 C3.33 20.47 3.66 39.94 4 60 C5.98 60.33 7.96 60.66 10 61 C10.33 62.32 10.66 63.64 11 65 C7.82086058 65.93854981 4.95745608 66.12879879 1.6484375 66.1328125 C0.63265625 66.13410156 -0.383125 66.13539063 -1.4296875 66.13671875 C-2.48414063 66.13285156 -3.53859375 66.12898438 -4.625 66.125 C-5.6871875 66.12886719 -6.749375 66.13273437 -7.84375 66.13671875 C-9.36355469 66.13478516 -9.36355469 66.13478516 -10.9140625 66.1328125 C-11.8417041 66.13168457 -12.7693457 66.13055664 -13.72509766 66.12939453 C-16 66 -16 66 -18 65 C-18 63.68 -18 62.36 -18 61 C-15.36 60.34 -12.72 59.68 -10 59 C-10 43.82 -10 28.64 -10 13 C-12.97 12.505 -12.97 12.505 -16 12 C-16 10.68 -16 9.36 -16 8 C-15.18015625 7.67386719 -14.3603125 7.34773438 -13.515625 7.01171875 C-12.43796875 6.57472656 -11.3603125 6.13773437 -10.25 5.6875 C-9.18265625 5.25824219 -8.1153125 4.82898438 -7.015625 4.38671875 C-4.01083164 3.14663794 -4.01083164 3.14663794 -1.796875 1.26953125 C-0.90742188 0.64111328 -0.90742188 0.64111328 0 0 Z " fill="#272525" transform="translate(170,343)"/>
<path d="M0 0 C0.99 0 1.98 0 3 0 C3.33 3.3 3.66 6.6 4 10 C4.845625 8.906875 5.69125 7.81375 6.5625 6.6875 C9.77209897 2.95558422 12.27210389 1.37538796 17 0 C20.84883371 0.17901552 23.18720254 1.38811664 26 4 C27.20190901 7.60572704 27.32670315 10.2102435 27 14 C25.26613148 16.84849829 24.03179693 18.51634519 21 19.9375 C18.38347809 20.01926631 17.14197204 19.49938043 15 18 C13.00474006 15.00711009 13 13.76914404 13 10 C10.00675737 11.0975223 9.15389099 11.67682892 7.75 14.625 C7.5025 15.40875 7.255 16.1925 7 17 C6.34 16.01 5.68 15.02 5 14 C4.01 14 3.02 14 2 14 C1.67 10.04 1.34 6.08 1 2 C-0.98 2.99 -0.98 2.99 -3 4 C-1.6875 2 -1.6875 2 0 0 Z " fill="#3B3939" transform="translate(219,612)"/>
<path d="M0 0 C0.99 0 1.98 0 3 0 C3.66 3.3 4.32 6.6 5 10 C6.051875 8.72125 7.10375 7.4425 8.1875 6.125 C12.94459607 0.72789301 12.94459607 0.72789301 17 0 C20.51143953 0.14332406 22.43158576 0.60057378 25.3125 2.625 C27.59446178 5.83664991 27.93230087 8.0734504 28 12 C25.9375 17.0625 25.9375 17.0625 24 19 C20.625 19.3125 20.625 19.3125 17 19 C14.62802321 16.70981552 13.38186514 13.97632492 12 11 C11.13375 11.495 11.13375 11.495 10.25 12 C8 13 8 13 4 13 C4 13.66 4 14.32 4 15 C3.34 15 2.68 15 2 15 C1.90912109 13.62714844 1.90912109 13.62714844 1.81640625 12.2265625 C1.69072266 10.44378906 1.69072266 10.44378906 1.5625 8.625 C1.48128906 7.44164062 1.40007812 6.25828125 1.31640625 5.0390625 C1.18915064 2.08481099 1.18915064 2.08481099 0 0 Z " fill="#2D2B2B" transform="translate(297,343)"/>
<path d="M0 0 C0 0.33 0 0.66 0 1 C-4.95 1.33 -9.9 1.66 -15 2 C-15 2.99 -15 3.98 -15 5 C-15.598125 5.165 -16.19625 5.33 -16.8125 5.5 C-20.17604663 7.80643198 -20.80723617 11.2717983 -22 15 C-24.57721139 22.71814093 -24.57721139 22.71814093 -28 25 C-31.5625 25.25 -31.5625 25.25 -35 25 C-37 23 -37 23 -37.375 20.25 C-36.66512567 14.0977558 -32.49203138 9.98157327 -28 6 C-18.79308598 -0.85073602 -11.14096864 -1.3740528 0 0 Z " fill="#383737" transform="translate(367,613)"/>
<path d="M0 0 C0 0.33 0 0.66 0 1 C-7.92 1.495 -7.92 1.495 -16 2 C-18.80131674 7.9811898 -21.42645664 13.76618451 -23.2265625 20.125 C-24.14873184 22.36056204 -25.09535887 23.51456218 -27 25 C-30.4666189 25.37142345 -32.91237402 25.61178961 -36 23.875 C-37 22 -37 22 -37.0625 19.3125 C-34.46920453 11.22752 -28.40182187 5.72587656 -21.0625 1.8125 C-13.92199937 -1.55866572 -7.67516777 -0.88769734 0 0 Z " fill="#353333" transform="translate(187,613)"/>
<path d="M0 0 C1.32 0 2.64 0 4 0 C4.44730469 0.97582031 4.89460938 1.95164062 5.35546875 2.95703125 C5.96538566 4.24254844 6.57610528 5.527685 7.1875 6.8125 C7.62545898 7.77639648 7.62545898 7.77639648 8.07226562 8.75976562 C10.09959319 12.9670153 11.8911899 14.86398646 16 17 C16 17.66 16 18.32 16 19 C17.98 19 19.96 19 22 19 C22 19.99 22 20.98 22 22 C14.40326484 23.19872437 8.12467377 23.1649725 1 20 C-1 18 -1 18 -1.23046875 14.375 C-1.22647678 12.9166018 -1.2117184 11.45820257 -1.1875 10 C-1.18685547 9.26265625 -1.18621094 8.5253125 -1.18554688 7.765625 C-1.14050904 2.28101809 -1.14050904 2.28101809 0 0 Z " fill="#3D3B3B" transform="translate(312,522)"/>
<path d="M0 0 C4.50416844 3.67006318 6.76790201 8.74908096 9 14 C9 14.66 9 15.32 9 16 C12.63 16.66 16.26 17.32 20 18 C19.34 18.66 18.68 19.32 18 20 C18.66 20.66 19.32 21.32 20 22 C17.50560386 23.24719807 15.72546277 23.20294578 12.9375 23.25 C12.03902344 23.27578125 11.14054687 23.3015625 10.21484375 23.328125 C7 23 7 23 -2 20 C-2 13.73 -2 7.46 -2 1 C-1.34 0.67 -0.68 0.34 0 0 Z " fill="#373636" transform="translate(330,387)"/>
<path d="M0 0 C1.10988281 -0.01417969 2.21976562 -0.02835937 3.36328125 -0.04296875 C6.84155598 0.19818073 9.50113427 0.77599588 12.6875 2.1875 C15.12224768 7.48042974 14.66090692 11.63908057 13.6875 17.1875 C12.3675 17.5175 11.0475 17.8475 9.6875 18.1875 C7.38630494 14.63110764 5.91277029 11.24031712 4.6875 7.1875 C1.0575 6.5275 -2.5725 5.8675 -6.3125 5.1875 C-5.6525 4.8575 -4.9925 4.5275 -4.3125 4.1875 C-4.6425 3.5275 -4.9725 2.8675 -5.3125 2.1875 C-7.33713255 1.53536708 -7.33713255 1.53536708 -9.3125 1.1875 C-6.01262125 0.08754042 -3.47217713 0.02002409 0 0 Z " fill="#454444" transform="translate(333.3125,477.8125)"/>
<path d="M0 0 C3 0.5625 3 0.5625 5.375 2.0625 C7.65416433 5.56890667 7.81753559 8.49150647 7 12.5625 C5.375 15.0625 5.375 15.0625 3 16.5625 C0 17.125 0 17.125 -3 16.5625 C-5.86795763 13.99643265 -6.86671285 12.36222291 -7.5 8.5625 C-6.68932657 3.69845941 -4.98257561 0.93423293 0 0 Z " fill="#323030" transform="translate(167,320.4375)"/>
<path d="M0 0 C1.8125 1.0625 1.8125 1.0625 3 3 C4.03608129 6.99631356 4.42696428 9.1072565 2.625 12.875 C1 15 1 15 0 16 C-6.27906977 16.58139535 -6.27906977 16.58139535 -8.9375 14.4375 C-10.78750173 10.19337839 -10.44114929 6.32344787 -9 2 C-5.53076119 -0.31282587 -4.07794425 -0.42478586 0 0 Z " fill="#313030" transform="translate(387,321)"/>
<path d="M0 0 C2.95887459 -0.08069658 5.9155659 -0.14034665 8.875 -0.1875 C9.71675781 -0.21263672 10.55851562 -0.23777344 11.42578125 -0.26367188 C12.23144531 -0.27333984 13.03710938 -0.28300781 13.8671875 -0.29296875 C14.98262939 -0.31653442 14.98262939 -0.31653442 16.12060547 -0.34057617 C17.05090576 -0.17199097 17.05090576 -0.17199097 18 0 C20.22264871 3.33397306 20.29675463 4.59514891 20.3125 8.5 C20.32925781 9.4590625 20.34601563 10.418125 20.36328125 11.40625 C19.95128633 14.34780511 19.29930415 15.20423739 17 17 C14.50044606 14.7590206 12.98969052 12.97895148 11.5 9.9375 C9.90104245 6.80620814 9.142541 5.52880373 6 4 C3.28005251 3.76507171 0.74043023 3.86297849 -2 4 C-1.34 2.68 -0.68 1.36 0 0 Z " fill="#363535" transform="translate(344,345)"/>
<path d="M0 0 C1.32 0.33 2.64 0.66 4 1 C4.33 3.31 4.66 5.62 5 8 C7.31 6.02 9.62 4.04 12 2 C12.66 2.33 13.32 2.66 14 3 C12.02 4.98 10.04 6.96 8 9 C8.66 9.66 9.32 10.32 10 11 C8.25 12.0625 8.25 12.0625 6 13 C4.68 12.67 3.36 12.34 2 12 C1.67 8.7 1.34 5.4 1 2 C-0.98 2.99 -0.98 2.99 -3 4 C-2.01 2.68 -1.02 1.36 0 0 Z " fill="#999999" transform="translate(459,477)"/>
<path d="M0 0 C0.99 0 1.98 0 3 0 C3 0.66 3 1.32 3 2 C16.365 2.495 16.365 2.495 30 3 C30 2.34 30 1.68 30 1 C30.66 1 31.32 1 32 1 C32 1.99 32 2.98 32 4 C28.54957827 5.05322058 25.37056649 5.12911555 21.7734375 5.1328125 C20.5771875 5.13410156 19.3809375 5.13539063 18.1484375 5.13671875 C16.90320313 5.13285156 15.65796875 5.12898437 14.375 5.125 C13.12203125 5.12886719 11.8690625 5.13273438 10.578125 5.13671875 C8.78761719 5.13478516 8.78761719 5.13478516 6.9609375 5.1328125 C5.31810791 5.13112061 5.31810791 5.13112061 3.64208984 5.12939453 C1 5 1 5 -1 4 C-0.67 2.68 -0.34 1.36 0 0 Z " fill="#BAB9B9" transform="translate(203,673)"/>
<path d="M0 0 C10.89 0 21.78 0 33 0 C32.67 1.32 32.34 2.64 32 4 C32 3.01 32 2.02 32 1 C22.1 1.33 12.2 1.66 2 2 C2 2.33 2 2.66 2 3 C3.65 3.33 5.3 3.66 7 4 C7 4.33 7 4.66 7 5 C1.25 5.125 1.25 5.125 -1 4 C-0.67 2.68 -0.34 1.36 0 0 Z " fill="#D0D0D0" transform="translate(277,591)"/>
<path d="M0 0 C0.99 0 1.98 0 3 0 C4.59412284 3.18824568 4.10174735 6.62896662 4.0625 10.125 C4.05798828 10.87910156 4.05347656 11.63320313 4.04882812 12.41015625 C4.03703499 14.27347127 4.01909942 16.13674555 4 18 C3.34 18 2.68 18 2 18 C1.67 13.38 1.34 8.76 1 4 C0.34 4 -0.32 4 -1 4 C-0.67 2.68 -0.34 1.36 0 0 Z " fill="#818080" transform="translate(414,328)"/>
<path d="M0 0 C6.27 0 12.54 0 19 0 C18.67 1.32 18.34 2.64 18 4 C18 3.01 18 2.02 18 1 C10.08 1.495 10.08 1.495 2 2 C3.32 2.66 4.64 3.32 6 4 C6 4.99 6 5.98 6 7 C3.69 6.01 1.38 5.02 -1 4 C-0.67 2.68 -0.34 1.36 0 0 Z " fill="#EAE9E9" transform="translate(459,345)"/>
<path d="M0 0 C0.99 0 1.98 0 3 0 C3.33692785 1.60341555 3.66941093 3.20776555 4 4.8125 C4.185625 5.70582031 4.37125 6.59914063 4.5625 7.51953125 C5.07455013 10.42267263 5.33877914 12.32244172 4 15 C3.34 15 2.68 15 2 15 C1.90912109 13.62714844 1.90912109 13.62714844 1.81640625 12.2265625 C1.69072266 10.44378906 1.69072266 10.44378906 1.5625 8.625 C1.48128906 7.44164062 1.40007812 6.25828125 1.31640625 5.0390625 C1.18915064 2.08481099 1.18915064 2.08481099 0 0 Z " fill="#848484" transform="translate(297,343)"/>
<path d="M0 0 C7.92 0 15.84 0 24 0 C24 0.33 24 0.66 24 1 C13.11 1.495 13.11 1.495 2 2 C2.99 3.485 2.99 3.485 4 5 C2.35 4.67 0.7 4.34 -1 4 C-0.67 2.68 -0.34 1.36 0 0 Z " fill="#D3D3D3" transform="translate(179,345)"/>
<path d="M0 0 C0.66 0.33 1.32 0.66 2 1 C0.02 2.98 -1.96 4.96 -4 7 C-3.34 7.66 -2.68 8.32 -2 9 C-3.98 9.99 -3.98 9.99 -6 11 C-6.66 10.34 -7.32 9.68 -8 9 C-5.89851796 5.01824456 -3.63094642 2.64960955 0 0 Z " fill="#646363" transform="translate(471,479)"/>
<path d="M0 0 C0.66 0.33 1.32 0.66 2 1 C-1.63 4.63 -5.26 8.26 -9 12 C-9 8.26071501 -8.08040398 7.59097747 -5.625 4.875 C-4.99851563 4.17117188 -4.37203125 3.46734375 -3.7265625 2.7421875 C-2 1 -2 1 0 0 Z " fill="#656464" transform="translate(206,481)"/>
<path d="M0 0 C0 0.66 0 1.32 0 2 C-1.98 2.99 -1.98 2.99 -4 4 C-0.37 4.33 3.26 4.66 7 5 C7 5.33 7 5.66 7 6 C2.71 6 -1.58 6 -6 6 C-6 4.68 -6 3.36 -6 2 C-2.25 0 -2.25 0 0 0 Z " fill="#B9B9B9" transform="translate(62,537)"/>
<path d="M0 0 C-1.40844718 3.21524305 -3.10344786 5.32183868 -5.625 7.75 C-6.57246094 8.67039062 -6.57246094 8.67039062 -7.5390625 9.609375 C-8.02117187 10.06828125 -8.50328125 10.5271875 -9 11 C-9 7.25983417 -8.0658409 6.54723807 -5.625 3.8125 C-4.99851563 3.09707031 -4.37203125 2.38164063 -3.7265625 1.64453125 C-2 0 -2 0 0 0 Z " fill="#6D6C6C" transform="translate(162,618)"/>
<path d="M0 0 C0.66 0.33 1.32 0.66 2 1 C-1.3 4.3 -4.6 7.6 -8 11 C-8.66 10.67 -9.32 10.34 -10 10 C-7.02911382 6.00073014 -3.87051275 3.07881696 0 0 Z " fill="#706F6F" transform="translate(165,647)"/>
<path d="M0 0 C0.99 0 1.98 0 3 0 C3 5.94 3 11.88 3 18 C2.67 18 2.34 18 2 18 C1.67 13.05 1.34 8.1 1 3 C0.34 3 -0.32 3 -1 3 C-0.67 2.01 -0.34 1.02 0 0 Z " fill="#575555" transform="translate(368,463)"/>
<path d="M0 0 C-1.38188453 3.21043882 -2.92421903 5.04936365 -5.625 7.25 C-6.57246094 8.03117187 -6.57246094 8.03117187 -7.5390625 8.828125 C-8.02117187 9.21484375 -8.50328125 9.6015625 -9 10 C-7.6834994 5.81113445 -4.97532335 0 0 0 Z " fill="#6A6969" transform="translate(400,482)"/>
<path d="M0 0 C3.3 0 6.6 0 10 0 C10 0.33 10 0.66 10 1 C7.36 1.33 4.72 1.66 2 2 C3.32 2.99 4.64 3.98 6 5 C3.69 4.67 1.38 4.34 -1 4 C-0.67 2.68 -0.34 1.36 0 0 Z " fill="#B7B7B7" transform="translate(415,614)"/>
<path d="M0 0 C0.99 0.33 1.98 0.66 3 1 C0.36 3.64 -2.28 6.28 -5 9 C-5 4.61031544 -2.87194899 3.23094261 0 0 Z " fill="#6E6D6D" transform="translate(11,483)"/>
<path d="M0 0 C0.99 0.33 1.98 0.66 3 1 C2.67 2.98 2.34 4.96 2 7 C1.34 6.01 0.68 5.02 0 4 C-1.98 4.99 -1.98 4.99 -4 6 C-2.68 4.02 -1.36 2.04 0 0 Z " fill="#7B7B7B" transform="translate(427,394)"/>
<path d="M0 0 C0.99 0 1.98 0 3 0 C3 0.66 3 1.32 3 2 C4.65 2.33 6.3 2.66 8 3 C8 3.33 8 3.66 8 4 C1.25 5.125 1.25 5.125 -1 4 C-0.67 2.68 -0.34 1.36 0 0 Z " fill="#807F7F" transform="translate(203,673)"/>
<path d="M0 0 C2.97 0 5.94 0 9 0 C9 1.32 9 2.64 9 4 C7.68 3.67 6.36 3.34 5 3 C5 2.67 5 2.34 5 2 C3.35 1.67 1.7 1.34 0 1 C0 0.67 0 0.34 0 0 Z " fill="#969595" transform="translate(432,614)"/>
<path d="M0 0 C1.98 0 3.96 0 6 0 C4.68 0.99 3.36 1.98 2 3 C3.65 3.33 5.3 3.66 7 4 C7 4.33 7 4.66 7 5 C1.25 5.125 1.25 5.125 -1 4 C-0.67 2.68 -0.34 1.36 0 0 Z " fill="#959595" transform="translate(277,591)"/>
<path d="M0 0 C0 3 0 3 -1.5 4.6875 C-1.995 5.120625 -2.49 5.55375 -3 6 C-1.68 6.66 -0.36 7.32 1 8 C-0.98 8 -2.96 8 -5 8 C-4.64950425 4.75791433 -4.43778819 3.38472296 -1.9375 1.1875 C-1.298125 0.795625 -0.65875 0.40375 0 0 Z " fill="#7E7E7E" transform="translate(358,478)"/>
<path d="M0 0 C0.99 0 1.98 0 3 0 C3 1.98 3 3.96 3 6 C2.34 5.01 1.68 4.02 1 3 C-0.32 3.99 -1.64 4.98 -3 6 C-1.125 1.125 -1.125 1.125 0 0 Z " fill="#919090" transform="translate(143,660)"/>
<path d="M0 0 C-1.39332574 3.36720387 -2.9789286 4.9859524 -6 7 C-5.37162381 3.35541809 -4.14650034 0 0 0 Z " fill="#676767" transform="translate(320,482)"/>
<path d="M0 0 C2.50357861 0.8345262 4.66785852 1.79371992 7 3 C7 3.99 7 4.98 7 6 C4.69 5.01 2.38 4.02 0 3 C0 2.01 0 1.02 0 0 Z " fill="#999999" transform="translate(458,346)"/>
<path d="M0 0 C-1.39332574 3.36720387 -2.9789286 4.9859524 -6 7 C-5.37162381 3.35541809 -4.14650034 0 0 0 Z " fill="#565656" transform="translate(337,347)"/>
</svg>
